<mxfile host="app.diagrams.net" agent="Mozilla/5.0 (Windows NT 10.0; Win64; x64) AppleWebKit/537.36 (KHTML, like Gecko) Chrome/127.0.0.0 Safari/537.36" version="24.7.6">
  <diagram name="Page-1" id="5nCAOlLGO8Dx-ETdp3e0">
    <mxGraphModel dx="1434" dy="688" grid="1" gridSize="10" guides="1" tooltips="1" connect="1" arrows="1" fold="1" page="1" pageScale="1" pageWidth="850" pageHeight="1100" math="0" shadow="0">
      <root>
        <mxCell id="0" />
        <mxCell id="1" parent="0" />
        <mxCell id="1srTuBoPDHxygdRqLbZh-5" value="Address Velidation" style="swimlane;fillColor=#fad7ac;strokeColor=#b46504;" parent="1" vertex="1">
          <mxGeometry x="530" y="160" width="140" height="70" as="geometry" />
        </mxCell>
        <mxCell id="1srTuBoPDHxygdRqLbZh-6" value="" style="shape=image;verticalLabelPosition=bottom;labelBackgroundColor=default;verticalAlign=top;aspect=fixed;imageAspect=0;image=data:image/png,iVBORw0KGgoAAAANSUhEUgAAARsAAAA6CAYAAACAqv0GAAAAAXNSR0IArs4c6QAAAARnQU1BAACxjwv8YQUAAAAJcEhZcwAAFiUAABYlAUlSJPAAAC1ESURBVHhe7d1njF1X1Tfw7biP7XGJe0niOD3U0EPvhN6LAAWEQBQJIT4AAoEe8YEviC+vEP0Bid4JHUILkBBqenFix3F33Ls9rnnOb3uWs31879x7xzMTv+b+lZM7M773nLXXXuu/yt7n3FEPVkhddNFFF8OMISEbpzhaHYePHM2vjlT9N2pUSqPPOiuNGX1WOqv6ZZQ/dNFFF/+VOGWy8fFDFcnsP3Aobd+zL+3u60t9hw6lI0ceTBPHjU29PePTzN7J1c/jMul00UUX/53omGy8+8iDR9PufX1py649ac2WHfl1+959ade+A6nv4KGKfA5X2U1K40aPThPHj03TJk1MU3sm5tdpk3vSjHxMqohoQpeAuujivwQdkc2Ro0fTwcNH0s69+9OqzdvSPWs3pltWrqsIZ3vatntv/rf66ZRP48aOTtMn9aTZU6ek+WdPS+fNnpEWzzm7ej07E9CEKgPyvi666OLMRdtk41179h9I67fvSP9evjrddv+6tPyBzWlv38F04PDh3K9pdipEkns3Y86qsp0xaUpVWs2d1psedd6CdMX5C9PFC+ek8WO7hNNFF2cyWpKNbEZptKkqlZav35zuXvtAWlplNOu27sg9mtwM7hBKp8kTxqf5M6amyxbNTY88d366cP7s3NvpGT+u/11ddNHFmYQByQaR7O07kB7YsTvdtnJt+s99a9Kdqzaknfv250zmVCCHOeusUbm0umDerPTUS89PlyycmxZUZdb4sWO6WU4XXZxhaEo2iObgocPpvge2pJvvX5uuu/3etH7bzrTvwMGc7QwioTkJ6GTM6NFp8sTx6ZxZ09PjLzgnPeHCc9OSubPySlYXXXRx5qDhUhAeOXTkSNqya2+6Z93GdPOKNbls2r2/r783c+x9jTC6ylbGVZmJcihnKNXvzRDX2bWvL63cuDXdUWVNd6xan1e3DlRE10UXXZw5aJjZHK4yFwSgP3PdHcvS35fen3+X0ZRQ6Wj8jh8zJq8oIRcZiZ/HVX87ePhwzoQQR191HDh4KL8elRn1nyPgXEqqSxfNTVddcVm6aP6cNGvq5P5/HVlQyZGKBA9X8h86dChvRhxTjWfcuHEVeZ7Iz94X722SJJ4E53M4Vxzx+1CBjku52pEt5Gokm2MoUOrW62AQ8o2usmLHqeiNPHQV8rQ7hwMh9MVmyAcDzUU5Hp9pR9elHrM/NThnKYOf6zZRh/eEDDHvrRDn5CcDnZPvNCQbxLJ6y/b017uWp/8sX52Wrd98bED9/x7Q6O2dOCGdP3dmumThnFz+IAj7Z5DQocNH0p6+A2nTjt1pRVWO3bN+U7q3Oqxq1YkLesaPTXOm9uZS6umXL0mPXrxwxHs31GEydu/enR544IG0ZcuWrLC5c+emefPmpZ6enuPGTSd79+5NO3fuTJs3b84KbwXn8nnKnzBhQj6fY+LEiQ3JbDAgV19fX9q+fXs+/OxvreDaY8dWwaJfrkmTJh2XK5zmVEAGOtq1a1faunVrfu0U9EdGck2bNi1Nnjw5/zxYvXEUc2ie6crvpwqy0N+MGTOyjMbNRpx/3759J81FvH/mzJlp+vTpLQmHjR48eDCfc8eOquKobLUut3PSS8jgnK7t/du2bTvJVl3PPE+dOjW/f8qUKS3nnBxh/5s2bWp4Ttft7e1N55577olk40e7ge2bub0qZ/5w69J0f1Xe7Ni7v/8d1Qkc1UB6J45Pc6b3pssWzk0XL5idFs+ZmYnGKpPMxoUo1d4bGwA3VoSzesu2dNeaByry2pSvse/AoRNIB0H5/JJ5M9PTLl2SnnLJ4jRnWm+VJZ26obeCsZswRnf//fenf//732nFihVZicZy3nnnpUc+8pHpSU96UpozZ052SMpdtWpVuu2229Jf//rXPJGt4FyOYHvH+PHjs9OY6LPPPjvNnj07XwPBmXTX6gQMcePGjemmm25K//nPfzJp+lsrMFAHZyaX64ZTk4szkMvhd+/x/nZBX3R09913p3/+85/pjjvu6P+XzsCAyRiE6JX+yDlr1qxs2GSkz1byIeKVK1emG264Ic/5gQMH2iLmgWA+Fy5cmG3lsY99bJaVTd166615PpBDCf9On+zL+88///ymc85Oybhu3br0r3/9K88x8hAgA2yL3Vx44YXpiU98Yj4vnbGDe+65J/3lL3/J9mHsAXoyn4sXL87vf/KTn5z12Ux/ridYmMtbbrkl3XXXXZl4SjgfG37c4x6XrrrqqhPJhuPv2t+XiebGpSuqzGZF2rFnX/+/HgNCUCotrrKZR503P11ZEcK5syr2nNTT/47GcG4ZzcpNW9M/l63Kx+rN2/JtDuXy+dhKUdOn9KTHLVlUnfv86vWcNKXKlIY7v4lshkFcd9116ec//3m67777MmsjBwZsAt7+9renRz/60dmoTbrJ/vWvf52++tWvpg0bNvSfrTOYUE7D4JDakiVL0sUXX5wuvfTSfF3kw5kYMaNphf3796d77703/fSnP00/+clP8s+iWqcgl2sa64IFC7ITkMtx0UUXZfIRtRASuehpIDBuOvrjH/+Yvv/976drr722/18GB9eLLEdGQMYLLrggG/cjHvGILC/5kBHDbySfOTeHX//619MPf/jD7DCnmt2YSw77hje8Ib3yla/MMnDG3/3ud+k73/lOWr16dbadgDGY42c+85npxS9+cXr+85+fddvI0dkpckE0P/jBD9Ivf/nLTOAl2bg+snMe13de53Ldf/zjH3msN9988wn2Sjd0dPnll6fnPOc56eqrr876o7s6UAYbQ6Bsn6/Q4Z49e/rfcYzwkD3yfM1rXpPe8Y53pNH/U6H/33PZ88D2XXn16ab71qZtu/bk/k0JfZmFM6dnknnm5RfmVSTZSKtyp4rnaWyVofROmpjfr8+zaefutP/goROW0dHOoUpxlJNJrcqYlFfDWU6JZIwM6//qV79KP/vZz3JW42/BxRFJMTXD4ICM0oQtX748T16p7E7gGs7lejIp5xMtGAaZZFsMISJ5KzA8ZYrPLl26NP9cT3HbAbnoBlFFxnf77bfnrMR4I+vjTEipVdpNLjpynjvvvDOT+amCfMZGRqVsZBDk9LMxyBLIyKbqhCPjM4c+gxCcK+Z8sDBXMiuEd9lllx0vYwBRyAjKLNj1IsvwWYQpM/FzHT4rExMQzQM7rZOjaz/qUY9Kr3jFKzLpRYYS2bT309WaNWv6P3EMdBnvi/JLAKzD5wVhOhY4ZPWlrwD5BcpnPOMZ6alPfWrOmI6TTR7wwcNp7dbt6baV66tyZ0Nu5pYnUB7N6p2cHlllNI9dvDBdVJVPPZXwsp1WMMcIA+Ho9fjM3iqrke3Yt1Pi6NHKQKpruZ/KLQ3IyeeGCzGBf/jDH3KKKb1nvOUkcqZQoOxD/8a/DwXZAD07H+N3bRFXjY8opL+uQ04GgXQYL8NohKEiGwi5fF40M0aOgnwYLNmc3zVlGPQ0kFxDTTZQ6o6M9ER3yJCM9MmBOA9nKwlnJMgmiEPAcj36ck0yx7X8DGTj6DI12U3A+8z9+vXrc9n+m9/8Js8vpw8Yo2vJiDm4jIadBmn59yA9nzOHdTt3Db9HRjt//vz8uVJnPovkEA3C4zsxDu/zfp9TAbzoRS/KOsglbX5HhSOVg9spvH3P/mN3bzdo4k4aPy7NmzE1XX7OvJzR+H2gpe1G8O4pEyfk7MjOYa+ypXIwxLaSpbm8Y+++nP0MByiIcXEYxvanP/0pGxyHKCcAIoJKfznNcMP1OI6e0N/+9rdcdnzve9/Laas6WYQsjXWkQC464Mh6HNdcc036xje+kdN5OuTcZYkw0qCPIFt6oi+Z6u9///scyTnXwwEZqTLvCU94Qs42OCPyKRFO/Pe//z0HMPNP3+CV7MaAbAREcxDgP1GOKYUe//jH5+uVmTCikeHp5ShvHvOYx2RyKoODayA0mTX96e1EoKJbNoekBDGZN/skW9ihcwmG55xzTiYb11AN5H/L/6/AuXf2N3Ltp6kbsazEKtOimdPSpQvn5GXqwWKsVSznqgjr3Nkz0pxpU3KvpoTSal9ltMhvuMiGUVKcyZOWmkC/n24wwQxRcxHpfO1rX8sEFJnOwwXXloEhaHW7vpVoV0/PHy6QT+DgGOZXz0Q2NdIEDchA5icr1rS98sors6OXQNLsT9bn4MgyIeDwSAChyyZkl2VA5OSIRb9PzwrZNCq5EU6UWXqQSI9cAbohh/6ObF1vKAiaPtlclKp6gTLIEggPyV1xxRV5jLK0yKaOl1EceuuevXmlaPXmKn3f/VBn+Vj5MybNm16x4vxZOSOZMnH8CdlIJzj2uQcrgjuatu7ak3s3Vrxs8Asom5RoiAixnT2lda+iE5g8ikIwMpo///nPucMfk1uHul9qqzHqoFCT3ayMCoZXf2u4vepVr8r169Of/vSc4jIGabZ/X7RoUa6NTToCNKl1EvE72dTGQTLSVTLV+yUR2ZuVUVEOSrOf97znpRe84AVZNsYRqxfGGM3pMFrXr8vFOJ07yheGyuBcw+fC0IBczcqoiMwamwxVY5Ns5CqP0F+s9FxyySX5M3RHtnpWRT7X1RPxSiYO4P1kM6aByijv1RB/6UtfmuV59rOffZJM9YNen/a0p+VxkI3tsAdjVNI4P9uRUXNkugN/NwZy+gwd+jw5kYseiTJf5kPXJdkoU/RF2BoSQTo+V/dRv7OVkEcQi7I4EHPq82yLfdKbvwsk119/fSZvWVi5omVs7Fg2QwdsiVxhm8fJZh+y2b0n3bv+2E2W5XI3wTyXZlFV8lw4b1Y6fwhuJ7ACpSHt0RSbK7LZuGNXXiYPIDhN5LN7J6X5M6aluRXRDRUozWSJHJTmkDaWDllHp2RDwRQtyrzpTW9K73znO/MElGTDqRmyrr/aOiaGETg3wyNrIIyAgbgWRxGZfA6xBVqRjV6AVPv1r399Xil4+ctfnp0knFjU48TkYmhBaCEP2Uq5wPkRoWsBRxFBw9FgILLxHtegD0797ne/O73kJS/JOiuPkJNDceZYsbNaR2/IJkgxZHRdf+fU9MQh6M31WpGNeaaTd73rXbnhSra6TPUjiIbuyvGTjwM7/M08Kofrjh4OTD7ByOcQk0asjNacGh/4NzZDTk5OZ+aOTfi3Rgg5nN/1XB+JxLw66ME1yBlbMHwumsIIp94UVqIhvGc961npKU95SvaTIBp4iGwOHMy3Cdy7blPasH1XLqUCbkFw/5Jn0Lg7e2H/zZKnCn0ipLZ5p4dwbc8N6YDVK43k6ZOr+q8qt/R2hgKhSE0tEeLHP/5xnrxWtXynZGOSGLa0WQTmFBTvEMH9m/MhGVFIloOYOLq/k1HE4QzlhAIj8O+cx/k4jwgYxtWKbBiO66qpI6sKuRigRiqiYDhIiRF7Lwd1DU7CIcLgA34nUxiqczPASNMHIptwANegX84a5Fs/Qk7j0MSMPVBefcaccATXCzi/I8ambyFat5PZ0APCcS1jaSRT/TD/cc06jDNISI9LyVJel+5Keel67dq1ufdkPo0t4Fp0zH4EMgdy8PeB4NpBfLEYwd5KOyEH/XhPZI4qgGgK+z3gfGyQDctKBY0yAMLxno2ByjY0hevGbdBjqpPZXOc2hEYK7Bz95xw7+qQGMZDBsrtsBykNBZyT8tS+mpvKJwYvyxkuxLi8OkwKQ+AwJpChMOggHRmP6PTmN785vfa1r81EJWqXxmMcnJYB2t+gFByoBGyGkKmUjVwcgSOTi2NyYmTzwhe+MO8deeMb35gzi2j8BUr96oPdeOONJxllK9RlanSEoyAcuiFnNCQjc0R0JcjASWMFTabTjlyNrt/J0Qh0jERkIJyT3EHIQI8IfdmyZbmxbT+STYd+9/eA89NBZDXKFlmr87cCHbomPbExjWufjZUroCNZT/Q0NdtlNMixzG7NhYAloDoPe2HXdRwnm2PKOfZ6Evp9vf/cQ4Y4XcPTkqV6sdjVZM46hkiHvUUw6aijvvtyICMZTrgmIzHhCOfVr351JhwpKUdiVKVcIpCxMEBkI4sp6+ehBLlkW7IHm87IhXhkIAyW4ZZA3rIXqxXIXLbTCeF0CnpBxvpLlln1npRWpb5cn344KweqZz4jCXKZT5kAR0fcsqbS0WXaAojSSWMb2SDJco45uUxOFuE85qckrVYoSULmFpsgAwiFnvRmyGHFUQaPsAPGIjgZC9JENs7ZiPCOW4klbFmLu7W9lsBgbqa0FN3ohszBIM6pXLPPpn5O+3BkPFmeFilhu4hoYT+NlR1Lh2XaSHEcx1Ea6kjD9WUWjEAP4LnPfW6O3vXUmLMYg9Qa4USjcThBrqjLObWeAscpQS6puQjIUGVgnWZdgwFn5XwyLpkDfZXzyOY4K5Kmt7LsHWmYY1kZXSoZEQWyLME2ObYyvVEwQQwIwjzIkpyvTvyt4P0CnDLMnMquS5hLZbigwc7orAwcdC4QsVVkQw7k0wjHJRs9Spl0zLnrG+iUV/opbmU4RgynnuIcI5tDeT9PIwI7awB5OgXlUBKF6dM4YlmRHBFplAyU3ciBRhLkEXU4jKjFmEQe6XIJ4xIB7YXg2IxiuAmHAzNqOiKTkoVzlwZGp3QrgyBXuYQ7nOA4IqroTh6OUA8anIfTIsP6ytVIglx0ydE5akncQRj0iHDMqXkOJw971d9CUkoxmUWdXNuF3pVzRc9QJh1ZVl2G+uIAcucz5Ger9ZK/xENkM/pYJhG3EpRw6nxDZUUMvkVhf2U49dsYOoHzIRdNaZv2nPNI7cl/5XNx6plWJ6AYRiUF1QRUcyqjYtUEgp2xsslTHjRj55ECo+E40ci1wiEKlpErDEHGpslpjCMRrckl7RcNrTqQS8ZTglGSyyqHvs1IODZ9ODgl/TWK8vHvDj+3gveFsykp6Hegg0NGEGsHnJNzI27NeNmNQDMQOHNkNbEip3QZLKJMdh7nM6+tsiT65TcCjfcrBY1jILI7fjbN2p5xY/MjI8aPO7mMQg5KHpv+LI3LRgaLB6vMSAll2XvDtl35fix3m5ewEjWhksNuY6QzWDAUfRlEY4+CPg2jKEHRan37TTD7YNLR4YKOPgOMFTC/12UTqY2RY5cNxOEEGRg8A6O7egmAbGQPsi4NY/Mw3JC1cPZYWSmzgQDHir029dWSRkCSdGsDm1JVs3SgQ5mO+NsdLz3KxGQHGrzIm3wDQVajsas/IqNA9IPJaErQC+LQaHZO8xnZTSMgRFkZgkSUMqtWcj9ENpVzyyJm9lYTMbnnpFsREA6yWbtle36i3vqKcFo9ta8Z9lYZzYaKYO5c80DeQCjDOfrgiUYhy7Ls7aHoU3sGl2UwNKm8TEafBuEwHI4AIkQ02DCzJpt0crDp6HCAMcqyOIdswms98nEyUZeDjUTfJsBJRFSGpuQrwV44HLmQjmhfd/yhhmshNvMty6tfL3SJJMnbTvaKvG3bd0f4V77ylfSFL3yh6fGlL30p34mtMU6WdsHR6ZEdyiw0t+uZYgBBIgW2KqNAOgORQrsI3QhosvvwhUbgH4hFRoucyEynzcqnwHGyiUdH+IYDO3ZnTJmUs50SSGHDtp35ERSeTeweKrt+200ZswFW77d5cPmGzfmGz3XbTiQtPo747FCeU8mxoCIb2VanQCgimxTe5MtqNCuj5kQmoVwK03toVA6cDmAIJpdBIpw62RgTZ5axjURvJMDIGZkoKBusE3SUIDIvB1IcapjLIFuZnexC8x/plKBDGQGSIa8g005fDlFq0HoawHe/+918H1ij45vf/GY+vM+KDdtrF2RD3OSSKXptlnX5O5uVgcfqUSsnbxfkYP9IRv+oWWnmeuYbKWo9eG87xH0CmyAc9yzJJmzcc4tCCeWPncarNm1LN69Ym/593+q0U7+lzYaxPs/W3fvS0rWb8ndP3b9xS36wVgmNYVnV7Km9lQzTszyDaRBzOs1JZZOlQ8uIZTefo8gSTJrUtdm9JKcDGAEjI6/UtRHZSPejXzBSEJEZHZkYKTnrhBOyIYPhkM35EYLs47e//W2+d8weqvImRSCrBQBpv6htrk+X7BVhGodgQW5lmDE1ArsNnXsdavAR/UxN/fp9TwH2F/ZIBr+3o8sTyEbZJIuYN31qOmfWjOz0GrUBlCILsSLlQeh/vXN5+tPty9Idq9fnLKfRkniOPNVn7E6+uyqb/nT7Pen6u+/LzzdWltUbza7X2zMxLTi7kmH29ONP/esEnA65yGjsdqwv2XEKrK0h5l4XaaNIN1QRYqhh/CZU9BAByV/Cv8cxkijl4gR1EoShkI0NISoOqDyKHds2milblC9f/OIX8w5bpTJnKYmNXMhQX0RwQTj0eLpAZqbct7xNfj83a6gjbWTEpqMXRj+nCr6hBHdOxO385GgE8poLWxoE9PLO8IFwUmbTM2FcmjN9Sn763syqlOLsJQxMc1f5c9N9a9K1t9ydbrhrRe6/rKwyng3bd+YbK5GLV7+v2uSbE9anvy1dkX5/y9Iqq1mVm8zlvVDgfigrT266lFkdy67aJ4CIEIyNspROJk+0iBSeozI0KaAGm/LJjse6A59uMLY46ginb+bwwwnyBIk3IpVOZYvzIQuRlUEjF81ZGYvNbe7NscFMFuNO889//vO5lLHxrGzOurYAgmj0lZTLAou5b6eEKhFja3XEe9tFODmndX+eElDvjR03gqDpvQIpUqhvSh0sXM91NbjJYJuI3xsh5oaPuVdK89wYGtlmiZM8LD9KospuPP7hsnPm5QeQN8KxkupgJpjf3bo0fem316f/94vr0leuvTH94Iab08/+eXv6/vU3pf/93Y3571/9w43p1zfdlb8jfP+Bxum0sm3a5J503pwZ+abPRn2jgWDiMK7BW+JmmCamBKNneDroNsupf9upNx9OGJdsjWHZ5FU3Lg7FeZQGxjdSIIdISy67hhlhEA9wOgRDNmm3UqYdiOoyU6Ty2c9+Nn3kIx9J73vf+9J73vOe9OEPfzh96lOfyg1ZTVuZK4IpM5lABBb3QclgX/ayl+VsttPAYhw+Q8/tHJ2QDbkFR03tWM1qltUA/dK5/iNScHTSH2oEJOGafMX5EFl9xbYOhG6OvJ+fGUMr0muodatSHu1w8YI5+Rsq/Y6ESuAwT9TzwC2Po7CqdM/ajemW+9ekf9yzMt1w94r0j3tXVr+vTUvX9T+2Ytfe/DTAZj2eyVVWdewreeflh3R5xk27E4eZTYIo6J6ciHJln4bh6eTbvCSrYXgc9HTPaoJsTKjUtj6pHJozt7vCMlTgKMhd5ui1TjTIhX5lFkiwHT2bL2k5EtFrcz+OvpsMVZkh4uonMHTEGyRXj6r0YaUmHu/hznbzXV81awXlttUWd+0jvU984hMNj49//OP5cHe4IKZx2wpklj0YE5tFNDKEUo91+AxHp3M3s9KTxjjbHyzYlvJJaeqcUZ4NhLDJyMgc/G0gNJz9WHZ2l7eHW1mh8s2VzUABhzW4+g7kfTgrNlb157qN+ZsZ/O4rfPVtmgGfeKCWJffzqvLtov7v/e4EYaSYlnHWVwQYOkPTOVc62SiHeNqNtg8XTCpnsgSLaBpFEI7Moa1UDUfTsBlEQ+k046zfzErfyJ3OOSw9txM4wvCVTHZ6i/b6NAMt6TtvEK6mpdUUqyRXXnllvsfMXchu0Kzff9QOnE9DGdnIqoJUGh0f+9jH8vsQnPkYCHzGvBqbEhFpKBlLGBd5jasMigIrfctu3IgrK0K8dcJtB+wrCE9Gg/AQVxBeBA1zSYbI3FyLHGxSOcXnyNOI+ANNQ42swvOGPb/Gk/lssBsu6BV53rCmNKLRs0F47YJiKBu7Wno0eRwhFGaSRPzo0zA8fZr/HyDCxE5cTujnsp438YzRcqkx2aA4EmBQjJKzKFvpvwSj1HRXsnbSIwlidV7ZUisE0bgWgvGNArKLD33oQ+mDH/xgfgZu9OS893SBeeWoiAKxmtsyOJIV0QiIxmXjJIcvgehlexrlSEIQ6oRwIpDJSPRePJVPxliCbq182VRqX099qZ3MSFKQ53dlz6yOpmQTz7CxKuSL/+dO683l1FAjK7Ua0KyqbPNld56X06hsa4aYNGm2Z21IA/1eMjOiiR2XbmzkAPWJO90QkSPSZWWh6FMaFAcSbSzpGh+i6bTxORiQIRqEIjKyqTcTGSR57Buxf6ndjIL8PhfjiWheh3kVcb3PA7UQjAduvfWtb81P1ZPVcFLZjPk/nYjGvHJSe8DYrSxcphI2CwII3RkbApWNy9hKuxVQkTwndx4thIH6PXWYR/YVmVU9g0Q0MjQ9L3J49IktIuwtYCyCDtuUZSGdekkdaEo2Jkd2MWvqlFxOOaa3+G6owUAD2P1YGsLIxmu7X0pXDlQKyCFFiFJhDJLRWoWwnwbhUGAzIz5dYLI06aSm6vl4jkgJxqBMkTkoD5VQZdQZDpCLfvVNROSQq2wokoGziMpkQwjtko3PxUZL0TRKsDrYp/EjE8vZSiXP//EIDD051zxd+3GyiWgKI4l6U5jMbNaOYrfQOJAN8lTWBdh/2AjCctQz32Ywj0F4KgKfda4yM0L8MmZzocEuS4yqoCyLg7SUvErfug8GWs4EIrC57hHnzk/zZvS2nXG0i0m5KdybLls0NzeHx45pP91FNMoL3fCoN+vMbtIivdanGcodl8MFE26yGBEC1SgVdRhpCQ4s2sX2co463CCXVJm+6Z2z1A2LHOSib3tbOtnDZEwIRgTlZPofCLVOGpzFXHMWcvziF7/IGeBAPYPTBbJA2WCzbJUO3ICrbEGcXjW3ZRd2DZf+4bOyG2Pn6EoaftEK5oxNmT+kp3yq21cQnuuaSyRjXvwN6SF7MBdRjiGcRv0naEk2eje9kyak82bPyN/h5FnAp/rIB6CwaArb06M35L6sdojGxDC0qBWVT2pXCjRwYNyIRcR335NJEzEpqF0yG2mISNJphmMV5tvf/nYmGumxKBRjg8gcRB2GyDgbZQBDgYigHMPTDX2row106nwpc0RSeuUsyEJW4sZCBtqJzn1eRDU2hi1T8dxf81hGU6AP1/egLnL5LqV2l2EfDpAXEcgEOaXyxaJGSY50pUwRQOiPHji9DEMGh3iUV5Ep+mw4uvlAOM4/EOGSI24ulTWbV/4Un+E7sn/lryAmWJPJ38yDvyGfMrg5ZzSaycAf2XKZZbUkG7uK3TM1d/rUXOYopybUJn0wkCFNtMRekdeSimiUT+3cA0Uh+jR6BjY1SeM1tig7QLYwWEpRv1OSCHs6wBhMgglmfCZJGspIGAyCcR+O74mSQZTOY2yMgUOLMPYLqamVUPXo3ylCLsaL3GIFDKnTNVL/0Y9+lMmGc9fLOtcnB4KxXMwozUGnMD6GbM702DxoPB5Dal7LcZKVfpQBHp8pw4nNbsYykNONNNgtWTmiICkrK5vgxq30CyenQ/pEshE42TPC8ffSB80VR0e2zi84lI4eQArsTibD1vRZyqawc7oectOUFqT1OMnl74Ia0otHkJblMZvhh87p3OymzJbask6rRZbCz6+Ixt6b3onj05jiNobBwM2WVp00ny9ZODcTTzsERlkUqTnJ+G384qz+HqAUqbdJQTQUQ1mnAxg/4mBkMeF2Otug9rnPfS5vWPvyl7+cnbnRNnCOxvBEG+mt59yIdEMBxslgpNccluHKYMjz6U9/On3mM5/JO3cbPQzL3GleBkF4bCiDNReDBUMWUY3RXhl9GdlpaeBg7mW1IjXC+da3vpUjdr3p+nCCHLZn0B2iUWrUyx36U34iGo5eZqtekS1HF2Dqjm4+ommvB2P+yj1mAfZkftmdQKYEK23MPCJ6AYMcyCYyGLZHRvaG9Bz1YILItDYkAOyHnQfhn/Bd381AABmOz7j/afve/fkO8L19Jxpcu8ilWc/E/B1Uj168MF1akU273+eNWJQVbrozGH0ayooBkdVEmKyrrroqEw3liBoDkRlj4GiMgdG6RtmLsKIhnVUexLNlOCcm995osNUR0UxphFQQpMNypd+NgeExQAbg2kgmIlMZmRmXWpnB6WU41PCMoRwbMosIyvj8XCet0jhdvy4buaTD5FLXO5dIxXicv5TLtelGhqXPgmzcf1TPtnzOuFp9u4LzKA+jv0b3goXM1PmMRSQv5fDq98jIjM/fnEM21Iz0vM8cRu+itCUgF6floOaYXuhqoMOeEyUSW3VdDuoc9OfzDnovr2VcHFeAZLdeZa8xr17pAnzGnCJT1wiwYeOJa8pI2EZ8jn58xjjNs6qgfruDUklT3xzG17E4n+s7yOkwV/xD5kt/QeoxD/EeY2IHWY52yAYeutiofG+Ur2DZsqti5mJi2oX7r/R+HrN4Uf4qXyVUK6IxCIqMR0ZIl01YyZwGyDAZq+69JVANynaWPoeabEJek1EnGj9H+cfIjcO4lFJkKCcfyI5orLzIaJCMXaqiTqOx+fxAZEMuRib6BdEgmDBA+o3oqEnN0er1N4RckWnJQNwSoN/AUcxHCXJ1QjYM3985C4MVRJCtsZDf/DhnzL9X/4ZEHWQ2Z8eNvUHAaUU2rlESTczhQIesig25HmejC6RgzPpKgoqMom637EomjrARBX2UCF1wfnI7h+w4HN0rUjNPzok0ZPiRmbAt70eG5lzfKGwtzh1lEsITMOivrjPXj3KWzcpkXDfkcH2H3wUI46eHjop8N2XO6p1SZSRz0qL+xz/UDaoViN1bKRbB+GbNdr98jhGYdJFW6WQyRbASlIAEZDMc0vJnKPrhAoOi9HICYlLaBYfmhJYf3/a2t+WvU+HQjLFuCO0i5ArZvPpb6WitEASI2H29y9VXX53lYuBDDY6A1KTuCM319Kz8rQT5OVBkEZ4xw14sx3LQwaA+h+0cpW45YpTMSAu5lWC3nNzYGpVIJdhzvFf2zi7K97pmBDjEh9BjXhG0AFT+PcCPnVsVgGzMozK4EeK9eksCXqPHsyB61xC8BC1ydcQUNvppFvsa3mgWd7LTV1Y0acL4vMR9wdxZ+f6nyRVDtoI6kAJjHV8DSqQIVgaRQX2vzkQ20UTrlAyHAzHZcbQDziWyx7K9r0+x9T56NCZ3sERTolPZyOXaoqY9F75V0zd+IkJZJOevR+ShgLE6b+wUdj33O5lrTlFe0zg4uKhrL5CS285yjlYPUO2irqd2DhAklcWIRhZJJvYcQDTGpNfFyWUTA81t6ehlE7l8f2QwiA3pyDxkt7EfR6BGPCWC8Jr1hOqg78i0yyZygG8iHNfir2Tq2BM1dmdM6clkc0luFk/IDeR2MPas0bnRbBndbQnTeia2XEbHiISWeotUSg9KKyfMBJiw+FoLKXid8U93cGKpKWflPJxZdJGhcei3vOUteQm43bJwqEC39BhljGxRREU0GrZIUKYRTjKc5G7Mzk8OukE2iNjPUvVyvjl79ElE12uuuSa/sh2NWXY13JDVuFY4ucPvQUQQQVKmIkC2swGSo7MR70e2ShTnCcjgBGMltHJYkFamIx7kK7MqWwTOZ37ZFgIjS6uKgL36DNKL7RfmJezSGGPViwyShY4tQ3biC//nTpuSllSEs3DmtFxOtYKejCxI2bSkIpoL5s9qeb8Vg6A4S6wymthzUoLxcVLR3u5g331DASPljEMBYzC5CNIY7IT9wAc+kD75yU+m97///XmvidWBVgYw1AjdMuYoX9773vfmmw4/+tGPpte97nXZyMg1nCRTh7nVAOUcVr0QnmjMaetg9KI6g7edQIajN1M623AhMgyRXSkhq5HpBIxDD0p2YGXReNqxW7pGSDIRRMtmZBYl+I3SEbnwG1mVXhxZ6qtgSENwQ1xk0adBJu1AyRwb/2RnZIsx8N/o0WmYj6omo728vgZP2VuzZUd+Wt+/lq1K96zfdAJj1+Gpf4jmyRcvTk+5ZHF6xDnzc0Y0kG4Ja8IQjAaerAZjl1HJ4BiepiKHoPhGO05bQRTSbGYUJsT1yoava4gmmN9BsQyHIr1Xg7VcGRgIZItMxiEqKZlMstSUczs4j2yh0wyNoelv0VdEsnb6FYxElIsGILkYIrlELfKQix5iB2k7zhGgL41bEVbwUFoEnMd1I1JaDWmn92POOJWxIhGBqVHWQt/OJwOLSEzn9CLzsJuXQ8qGBukSx2Ec5pGN0BeS0b9QzpRgBwIMWQRJ5FFmKK2ANKKPyQbZYgnnJ4drmDu6UdaU7QdQFciorD4hDu9vF+E3zmtOZW90WupQti6AtkU23hJZhtTIsb/vQNq+Z2+6c/WGdOOy1enWNZuq0VVs2Mj4qs/3ThibFk2fkq68YFG6ZOGctGDm9ONGHUedIFxTBBKZpGGc3+BK+IwJ4gwOztEuK5cwRs6AMFxLTVtGIY4V15GyM1TykYl8nTg0mY1XRkBeh5+d37914sCNQC4kbRxWLPzcyAHroDdzEnIhOq9k9fdTRdgQ3ZKr7BuEXlyPfjleuyTLJpTaeiPO6/dmZi1oIB0OZZyu2+5n20XYJP3RG2dEYvWshr45ovEi8E6DSmmz5DffdZDFdRxIpk40EDqxuEInnfoPnbEx+nMYa2lvZEC6bZFNnAwzyjLsbcGoW7bvSJt370s7Rk9MfT3T0/jps9JZY2pGWZ3+6JFD6cE9O9LoXVvTlL4daXbv5DR3zuzMtvosspIoE+qORuhQEjkawWCQgcPPg3VWqojreC1V45yOuI4J8e8hn0lvQ5UZcS6yhjGE3I6hALnIRLZy4lshZCplG2q56JdsjebT9eiXk7Z7zZiHGO9A8xBjcn4/Q7uf7QShP2MwTuetn9u/kSXkGYyOnTP0Sf5GKM/baHx1nXQqh3PSoes3s7c8vuqNTbXrQ9Jee0+kqeV+ENFgX5V19B0+mkZPm5UmzD8vTTv/0jS2Z3Ia1T+J8OCRw+ng3t1pz9oVac+a5enoto1pwphjKxpYHeHot2h2qT/tNZA1GHwXXXRx5qAp2SAaKS+CUc+6H8bPyKfEqFFVyjhjZupdsDjNuvyKNL53RpXdPNT4PXr4UNq/bVPaft/dafuKpeng7p1VpvMQA4tiaka1tE14NhNplEntuuiiizMHTXcQS4cQiy4+stFoVGOfzE3V7w9WqfHBA+nQnl2pryKW/Vs3pr2b1qU9G9emPRtWp93rVlava9KBHdsqEjsxdXY+aSBi0xtAPEqqLtl00cWZhaZLNmo3Dq8halnNazMCOFIRxcFdO9KuilRkL1uX3ZGPbcvurDKapfnvB3ZuP5bR1MjKdTTTdM01qDQG1XdddNHFmYWWPRv7BCyrxfNL/G41KhpSspJ49f5Gp9NwiiZUNFejCWj1Qd/GTkgb2GzK053vEk4XXZxZaLkapbyJ9Xz7EaxEWZGy1GbJV6mlvLIN3PsQTwlEg1g0hJVI9mc4EAqSsa9CU9iKlOwG+Xj/YDrzXXTRxemLtpa+vUUmE3tQrKVbjUIu5WF53BF348pOYr+BZW2v8TNSiT0GSMbGsW4200UXZypS+j/tgAW/F2fcpAAAAABJRU5ErkJggg==;" parent="1srTuBoPDHxygdRqLbZh-5" vertex="1">
          <mxGeometry x="20" y="30" width="97.59" height="20" as="geometry" />
        </mxCell>
        <mxCell id="1srTuBoPDHxygdRqLbZh-8" value="Commerce" style="swimlane;fillColor=#fad7ac;strokeColor=#b46504;" parent="1" vertex="1">
          <mxGeometry x="80" y="242.75" width="140" height="70" as="geometry" />
        </mxCell>
        <mxCell id="1srTuBoPDHxygdRqLbZh-7" value="" style="shape=image;verticalLabelPosition=bottom;labelBackgroundColor=default;verticalAlign=top;aspect=fixed;imageAspect=0;image=data:image/png,iVBORw0KGgoAAAANSUhEUgAAAfIAAAB1CAYAAAC1U2MEAAAAAXNSR0IArs4c6QAAAARnQU1BAACxjwv8YQUAAAAJcEhZcwAAFiUAABYlAUlSJPAAAEGZSURBVHhe7Z0HnFRF0sCLnESiIklRQBAJEkQFQYnmnHPG0zPc6Xmnp37nnd75M0dQgoCKIJIlB0mSc46Sc5IMEv36X7uDb9++mZ3ZmVlYqP/5jt23M/36darq6urqHL87xDAMwzCMbEnO1H8NwzAMw8iGmCA3DMMwjGyMCXLDMAzDyMaYIDcMwzCMbIwJcsMwDMPIxpggN7Ic2yhhGIaROGz7mZEl0MwOHz4iW7dslS2bt0rx4kWlTLkykjOn6ZKGYRjxYILcSDpHjx6V3bt2y4wZc6R7t94yZ/Zcuah2TXnrf69LMSfQc+TIkfpJwzAMI1ZsOmQkDXTEgwcPydo166RP7wHy2SdfyqyZc+TIkaOyceNm2b1nj5nZDcMw4sQEuZEUEND79/8ms2fOlc4du7qZeC9Zt3aDzs6BObjNww3DMOLHBLmRcBDW27b9KqNGjpWOX30rI4aNcr9vPzb7NiFuGIaROEyQGwkDQX3k8BFZvWqNroUzE589e578duBA6icMwzCMRGOC3EgIKsSPHJEZM2ZL68/aS78+A1WgHz50OPUThmEYRjIwQW7EDUJ8167d0tcJ748+aC0Txk+RHTt2HjOlG4ZhGMnDBLmRaRDUXOvWrpfPPm4r7b7oJMt+WSGHDh1K/YRhGIaRbEyQG5kCAY7AnjxpmvzvzQ9kyOARNgs3DMM4DpggN2IGr/Tt23dIn14D5P13P5UZM2fLwYMHU/9qGIZhZCUmyI2oYbZ94MBBNZ93bP+tdOzwraxZvVaOHknZG24YhmFkPSbIjagIhVmdMG6StPm8g/T/cbDOys2SbhiGcXwxQW5kCNvKNqzfKAP6D5Ev23wlEydO0ahthmEYxvHHBLkRlpBD29zZ86Vzp67ydedusnLlajOlG4ZhnECYIDcCQYjv3LlLhg0ZKV+0/kqGDBou2381U7phGMaJhglyIx0pYVbXSrfveqpD26xZc9XJzTAMwzjxMEFuHINZONvIpkyZLq0/by99evWXtWvX633DMAzjxMQEuaHglY4pfdCAYfJlm44yYfxkC/BiGIaRDTBBbqgQX79ug3Tq0EXafdlZlixeKgfNlG4YhpEtMEF+ChPySp83Z4F88P7n0uOHvrJ16zY5Yl7phmEY2QYT5KcoIVP64IHD5b9vfSATx0+Rw4ftyFHDMIzshgnyU43fRWfha9esk44dusinH38pK5evVMFuGIZhZD9MkJ9C/H70d9nlZuGcWPbhB62lV4++snv3HmS7YRiGkU0xQX6KQJjV9es3yI8/DpbPPmkrkydOczPzw+aVbhiGkc0xQX6Sg6Dev3+/zJk9X7p82126dvlBVq5YrYLdMAzDyP6YID+JQYjj0DZ65M/yVftvZMigEbJt23abhRuGYZxEmCA/CUFQM+Neu2a99OjeRw88mTljjuzdu8+EuGEYxkmGCfKTDAT14cNHZP7chdLui47Sq8ePakrHU90wDMM4+TBBfhKhM3EnxEeOGCNv//dDGT16nGzfbqZ0wzCMkxkT5CcBCGqubVt/1cNOPnjvM1m+fKWeWGYy3DAM4+TGBHk2J8WUfljmz1skb/77XenapYcddmIYhnEKYYI8G4ND2/Zfd8jggSPkrf+8K1MmTzMBbhiGcYphgjwbgrDGbL7slxXy7TffS7u2nWTF8lV22IlhGMYpiAnybAZCfPeu3TJtygzdG96nV3/ZvGmLzcQNwzBOUUyQZyMwpW/csEkGDhgq7dt9LePHTZZ9+/an/tUwDMM4FTFBng1gto1D26KFS6TLN92l63c93c+L5eDBg6mfMAzDME5VTJCf4CDE9+3dL2NGjZO2X3R0s/Fhako/etRM6YZhGIYJ8hMahDh7wznspPXnHWTatFmyb5+FWTUMwzD+wAT5CQiCmpCqc+fMl48/bCO9evSTtWvWyeFDh1M/YRiGYRgpmCA/wUCIHzhwQH4aPlree/dTGTXqZw3wYhiGYRhBmCA/gUCIb9m8RTp26CKfftJWliz6RQ4dtMNODMMwjPCYID8BQID/9ttvMmf2PPn80/bSo3tf2bplm62FG4ZhGBligvw4o2FWt++QMaPHy8cftJFhQ3+SvXv3pv7VMAzDMCJjgvw4wWz76NGjelZ49269pc1n7WXhwsW2rcwwDMOICRPkx4m9e/fJjGmzpEP7b+T7rj1lw4ZNJsQNwzCMmDFBnsVgSt+0abMMGjBMPv7oCxkzepzs3/9b6l8NwzAMIzZMkGcRmNLZG06Y1c4du2qo1SWLf7G94YZhGEZcmCDPAhDie3bvkbFjJkiHdt/IkEHDdVZuJB7KOtx1vDiR8mIY2Y2UPpP6SyrWj9KSwxWGlUYSoXi3bN4qA/sPkaFDR8ratevl4IH4DzvJkSNH6r/6zzF+P+oaeOrPCcc9K4f7H+/E873PphXx5Bw83P0hUrPK6f5erlwZ+fDTt6Vc+bKSM2d8+qT3Wfpz6q+hkiDP+p8nw96fk0FQnrR8siAvkco+xPF4JkTz3Oyef4g2vXhIVFlGS6LLPBLefOMUHEQoP/5/YyEr6ilEMsvPBHkSoQGuWb1WevfqLxPGT5Zft22Xffv3y9EjKQ0zs0WfJ08eKViogBOI6QXgkaNHdPafEMc52p1LhgaYO3cuKVa8mJQoUVxKliwhxd3PhU4rqHlhyWDPnr2yZcs23f++dcsW2bVrt+Yh6B0TJchJmwu/A8oWK8eG9Rtl0+Ytrgz2ar5y5colhQufJmeeeYaULVdaSpc+y71HUb0PiexcoXelfnfs3KlHznJt3rJVdu3crcF9ChTML6efXljKlCUvpeQMl6/TTiuk34N483PgtwOyc+cuzUtQUmQxb968UrRYkYS9O8+ivn/b/1vgM0MULVpU8ubLm/pbMFqXv253Cmnw4E3+qTvynzt37tS78UH+OZgo5RyD4OdCwYIFXb8rGLG9khaOrPvcFa4O4oUyKFiwgJzm2nWkOuT5u3ftkf1uzIknHzncOJMvX76UMce9e+iZiew7QH6B/kN7Wrduvax24+faNetl69Zteu+w69P58tGHXJ8udaZUOPdsOffcc6SU+zl//nwuU7Hli4kP238ZKxL8OgpvxDjNGJS/QP6Um0nABHkSoWh3bN8p651w4RjSgwcP6CEoy5evkunTZsnyZSv0PPFYqgDh2aJFE7nqmuYqRP0cdMLivXc+lhXuGfGSJ09uFd51614kl1xaV849r4IKcgRPbvc3PwgqOhvCdO7cBTJ+3CT5ZelyHdi87xivICetlM6+S+bOWSA/j50gixctVUVizx6UmPSDMYM/A/FZTnjWqFFNWlzVVM4/v6Lko/M74hmUyA8XguyXX1bImDHjZc7MebJx40bZvdsNPoePuL/rJ93FSOOEqas7FIoKbhC67LL6Wr5nnVVK8uTNk+m84G8xZcp0afdFZ1cGR1Lv+nBpn3FGSXniyYekStXKcb038N7U98cffqHvq68YhHvMo489IFc0uTzsM0lrzep18ta/39UASeHIX6CA3PfAndKg4SXaRuOBZ+5wA/m3X3eXmTPnyBHXT4PI4droFVc2lJtvuV6KlyiWejc99Pcfuvd2bX9yWGUkLig6V8ZVqp4vL/3jubDtJdQe33n7Yx1n4oF3z58/vyqe1S6sKnXr1ZayZc9SpYxnx9uGgPzSfleuXKNhqadNmaGCfLcbT1Du3J+P9WueRp54bl73/meWOkOqV68mTZs3lho1L9TxKZoxhWdyhsV773yqbSBZUHaMN3fcdXPqncRjgjwLCBUxDS/0MzOn6dNnyQ/f95YZM2bLwQOHjv0tEgjSRx67T2659YZ0wlS/7/579umXZOrUGal3Y4M8oiCUP7usNHcKw9XXNJPSZc5K11mDOq8//3TCiROmyo8/DpL5cxeqd37IvFw+k4KcTr1zxy6ZNHGq9O07UBbOX6yx6b1lG4nQ59CQm7e4Um69/UanoJyj7xz0ThlBWigwixYtcQN4Hxk3dqJaXagHUouUI32e+z6DUrnyZeSaa1vKVVc3cwL9TMmVO1fM+SEfP/00Rt584x1VHsJRwM0M7rrndnn08ft0dp6Z94ZQef/Yb5C889+PdKANel9N3f3fy/98QW665bqwz+P7S5cslycefcbVafjlJ77epGlj+ccrf5EiReOzLPAOUybPkA/f+8wJkdWpd9OTM2cOuf6Gq+XxVg9JKVc/QZAWSs3nn7aTkT+NPVY+iYbXPb9KZfmy3UdSwM3Mg96fZ2MFeurJv8oyp1zGi/ddTi9S2Ck1l8utt93glOFKOg7F04bo06ucAO/ff7AMHjhctv8au1Dl+VgpLm/cQO6+9zapVOncDNs2z164YIm88Jd/umduT72beBDktPsX/vbn1DuJJ3M2TSMmaEz+BoWZhRnF6//6hzz2xINSymmVOdxgEQ2hPhVKN3SpQExNIjPditlNeSdY77nvdnnr7dflwYfuVhNwKO/eZwXh/3vh0wtL85ZXymuvvyQPPXKvVKhQXnLnSlE+Yp2r0On27tkr06bOlPff/Uw+fP9zmTNrrgrx0N+jIfS53bv3SP8fh8h//vWODHD/Yl4LmsmHg3QwxzGD7ND+a3npxddlxLBRamEJSbOMckQafIbnrl61Vjp3/E7eeP1/Kow5KCfadwqHph9woUTOnjVHtmzelvrJzJJDy3/EsNFyxL3D0YBncaXcT/1KlASlc+w6+ruGM44keKOBtFB+KIttW1NCIoe7MqxMDynfcUqNL43EXakPigY+m+77sV9eMNfTZ1575U3p7iYiLGtRJ7FCu9+8eYv07TVAXn35P9K9a+9MCXEgj1j+RgwbqX0ahSC0xJQhSa0r93yuJGOCPIvxCjr+LVGyuNx2+01y3wN36TrP8YB8sPZXp+5F8tSfH5eHHr5XzjuvwjFN25vnaAl9B5M25uy7771dnn72CalZ60I1h0G0zZvOwLrpsKEj9VjXUSPHqAk/Xj8Aljt++WW5dPqqi/Ts3lc2bdwctTBHgGHWJz/dvuupA1C8+dE05y6Qj95vLV27/ODys+WYP0UiQehiUpznnhWL8pKe32XB/MW6pVIHrAQSqb3xpK1bf5Upk6bH/dw1rhwWLlgse7GiGFERElAsGX77zffyfbdesmXL1pjaEn2P5b+OHb6TL9p8JcuXr9SZebwccf1l5YpV8tmnbaXnD31VIY6vjWcPTJAfZxiwWNNp0qyRNG3WWNdxsxKej5m50RUNpNWfHpbGVzbQdfiQIE4EpIM5t1Ej94wnH5FaF9XQ2X80qTNgMFse8ONQjYLHeh+dNQiymyd3bjVl8U6YXdXJxP2OQhH0OqS/efNW6dN7gF7sMIgoHNyfWL/FMtD2i04yedK0sGZg3hsnQdbhqeOiLj9FipyuJkCUmaAlBZ6N0vJ9117Svl1nWeEGpWQMRFgkZs2aq06BEd83DHyH3RdjRo1Tv4SshufjQLozDssFa7IoIZh1k6EwBUGboN7ju1Ktb3ESTV4ijQGUO2vLAwcMddcw2RXlDBhL1tIly+Sbzt30bAnaYhA8mn6LE1uxYkXVhwTfGiY89GsdQwLyRx6wGnTt0kN6dO+jfguZbSOhso7nwtJKOskk1xuO1J+N4wSNEa/QfHnzqmaKdhuu4SEELqpdUy6oVkUbuR++h1lp/foNqXciQ3o48dz/wF1yfpVK6gmcUecNgYDhSrmX8p1I36VB45hSvnw5FZh16taS051gi/QdTNX9+gxUByK+EwRfR1Cy1o2ScPHFdaT+pfWk3sUXSY3q1dSzlYGAvJJekGBEOG/cuEnTOfvsclofQfk6eOigzJo5VweJuXPm66Dkh6+xdlnepVOjZjWXj9py6aUXS/1L6rq6qyGVK1eUMm5AKliggPv+YVUE/PXN7ATTMc5yeOWiAEQqJ0AYIfjHjh7v3jHywHX096O6Dl+laiWtk4zSDmLtuvXydaeuUZlDSb9R48uk6gXnh30WZYCZtn+/QVHNzqhL2uw5FcrrgBkr5Hvo4BEyc8acDJ+HgybPwmpFGwkHO0amTJ6u9eCH5TQcLM8+p7z6nWT6Kn2WXHBBVbn0sotTFdTg8qRdDew/NN36Lx+nPVWsdK629cBnpF4lSxTXfB85fETbahC/6U6JnervgqCNVBf0PWbMKKrE1WC5LAiENJa86q7/0HcaNrpUlyLp17Uuqi6VKp+nToe8+37XDpjh+8HxF/+AIkUK6+eDnIPZZTN0yIh00TUZq9idU7HSeeq/ElQ20V6US+06taRq1cqpqScec3bLBBQZ6zF0EMyUkaCh5cuXVwqfdtoxx5SgjqeDmEuPiG+9evwY1msXZ7eHH71PHU3wWPVDR3n2qZfcjHFGhqZrBoH6l9aVPz31aMQBFsgfMzC2gRAXHqGKJo0gQwEpUqyIlC1bRsqUPUtOL1xYcuYK35lJC7MuAr1I0fACivVLzOmtP2+vHS4ILBgII4QkHrU46RUrVkwtAAwoCDe2FbEFjEh6eMNOcrNozn33t3y0ZrzI//T0o9KgwSXptkpRtsuXrdS1bE6rC63Pe2GwQLCQH5SKc50SUaJECd26E1K8KMfQ9ppFC5dqXc2ZPT9wXZwlj6uvaS4PPnyPeg1HqiO/s5s/LT8MhA88eLfcfudNqrjEAmXRr+8g+ej9z3Ugzwjy/cqrsTm7ZZR/kmna7Ap5/Y1/aH1HKhs/PAuFDMc02mJG5HJt6fobo3N2++yTtjLS1YM3++SNdvHnZ56QkmeWVMUgHvA/KevxX/FDXtTZrRXObsvTjAW5XTus65RLHD2Z3YbLCmlQD79uY6fNSpk6eYYsWrxUveH9YPW67vqWOjbpEmFAmqRHv+vxQz/XdgbqTNkP78Ouijr1akn9+nWFnRW0e/r5Hz5EOXR3AX36l6XL1Co2acJUNfX7FTLSO88p+M/+9SmnENRLo2SQH3V2e/5lN/amVUaxAlzRpJFcf8NVbvZfOGwZZQTlnitnLvdOJSLudogXm5FnAgbMqVNnSpdvv5efx06UieOnyMQJwRfe1TOnz9Y1SWa/mFeDZtI0OMytCCxmeuo0FUCiZuQ8r0yZ0vLkU49IjRoXBqYFpMe1etUap7n+JAP6D5ERw0fLuJ8n6sxj5ozZMnPWXJk9a546IGGmdN+QEk6bDTJ9kRbQqEPCNgjtZAsXyxdtOsq61etS76YFpeaa65rLnXffKo2vaCgVKpyt5Us5hp5L50cgc/+cc86WqtXO1wGQ/d3M/ryQNczEDCTMBLzCjfzgPENUPpza2DfvB4XtEjdLuv+BO6VZiyulipvBsX0P07r3PZkJI6DZ286siBk6pkIsMZgEQ2UEhw8fUoegQm4gq+xmFXjihiOaGTlph8qGGRbtCQWIve3+ugoHaSAkunfrpVspvfkNB2knekYOfJ6te5RltPkHZnETXL9l62I0Zx3EOyOnHaY4kt6hAv0MJ8xpZ5m9oqmvcDNyrG6076uuairnVawQmL5eLo/soMCCgEDls9Q7Y4u/fvidSU0lN4Mt42ahQf2ayQm7Onr26BeomPM+WJ/wp0Hhw5+GPKh1zJUff0+5XH24iQL1gAWA/sPsmTQ1BoGnPfJ5+gJlj3XMn69wM/L8+fKrItG0+RX6jHjqq2TJ4jqJSybBo6gREYKurHezKTrs5InTVCMMezlNcfSocU4L7aszOfZVhxukEKY4v6FtJxuEzu133Ci1nVKAYAmCDsGsc9TIn+XDD1o7xaW7jB0zXtcVEYTMIJlZMlCgqMx2Ah1B/0Xrr6Rblx5u5r5RZz4hSI/fmbUw02btO0gIcG//vt+kT68BssLNgIPEBFr/nXffop2efeF06nDKCNChEfCYJZs1v1Ke/FOKFSIEs/GSTmtu0bKpm43XlwJuhuGFOmNdb7Qri3AziUaNG8gTbsaGyZOBJaNlCgYVBClmv1tuu0Huvue2dKZJiod1yJ9GjFFHuKDyigbS9CtWmCPxOeC9ohWcQB4wWdKWvfUL1EHQIB4v5Bt/A3/aWIVQKnmXaMuGz21zCsCC+Qs1FoEX0uc5icaJn5T/HZtVHl80F1FkJaXcc6viULNWdXnokfvUauWHMt20cZOsWbNWDgYsN9FO1q3doJMAxg5/XfEcFHGsYddc10IFb7jlrRChvGEhaeYE7n0P3iUoHKHxjLaIYnHvfbdr34ylXWru3KO1ziLk4UTBBHkmoaI1HKprkJEutt4wyOCUg+BnFsC6EH8LAhOVRihKMszCrr62uc4Wgxoq+WP5oEf3vvL5J23VJE0wm3DrZMArYUlgkO/Zs586sxDZjk7MbJHZ04/9Bsv/3npfev7QL12gmBDcYx8815EjaZ9HVosXL6pmzmuvv0rNbuEUkXBgCcC0iFmZdWyiRDVoeKk8+/yT0uqpR6Qmzni+ZQv2rk8YNznF+cyXZ8qPte9HHr9fhXKkWXMQDDCs4bdo2cQJ9Ov1/byEPHFHj/rZzSAycMYLgPyh6BAsI5dvyQMrAOb9IAtDEDwbJ7HJk6epMPTmhYGX9cBixYqk3kkclCkzQyIKetsrz58+dZbEspWO9rh27TpZ6BRSvwKDP0WZMmUC+8TJRYpiEQsIxsrnV5Srrmnm2mz679KGNm3aotsbvVBHTAiw3s2buzCw/TLzf+a5VnKZU6IjWTyCoK4Kue80aFhfbnYz+TJOWcfaeO/9d8grr70ot91xk2s75WKuU/10NmkGJsizCJou5pslS35xDX5fys0A1ETlBu5kwszsppuvlaJOeAQ1bjoa+UDofvv197r2FCnAiB8GShyJhg8dpethmOXHjZso/33zfWnzWTuZMX12WA9X7mGeZAaK4PebiPPmySsNL79Mg3OceUbJmLRsLyhLlza4WJ77y5/kxZeek5dffUFn6igGoe1xISgLFBKEl3+2Qekx+37WDUK6Zc/NEDID9YAl5sabrpP6l9RT73svrENTbrNmzVPHo1hBEF5zXUtda/Syd+9+WbBgkW69C6qPIAiFO2vmHNee0y7/4O9Qt95F6Z6RCGizWF4w73rrnDyvWLla5s6df+z3jEDg4JOAZcj7cdJlzZ1dG0Z6aKMognXq1NLwsH7oJ1iPfgvwHWF3xNixE9WC4q8j+tv9bjZ9qRPi4SYWGcF3ChQooDt/UMjffvcNeezxB3QJkn6V2XEiu2CCPIthRhspnjMNPZwnZyKgj5xT4WxdZw8nxLlmTJstP/YZKDt3RRlUwQff4V0G/DhY/vrcK+qANWH8JNm5c7fOznlyuO6Kt/ZCJ1wOHjyYJo/8TN6bu5lr6TKl4jJTkhaaf+MrGugMA2cU79q6F7xfFy1aqnuO9VAYD0Rlu+b6llKt+gVxDxaap8KF1AkJM783L5Tn+nUbZY4T5Lt27069Gz20OXwDcMDzviLpElYWK0qQ568flLQZM+aoEOTnEFhFznEzZpSZjBxAMwPFTlx6lkP8M7b9+/apsxOWgowgz5vdrJEQyV7rEkXCrLB6jQuiKodTGd3aeXp6J1WGCYS4v/wocyYw8+elXxoiDZS/Jk0axb2kQVoIbcIAV72gshRwCqXfAnWyYoLcBw2Nhkgn9w5UiQDTVPnyZVRzDALz0/p1G3TtOVnkzJlLPapxFAvHtm2/Ss8efVVwIXTjAVP7OvdOKsAz2BIFlD+BVoLKAJM4JuwLqp2fMA2bzk9a/kEpBPnBSQdHPpwc07yB+woz+KZNG+v3w6URKzjJXXJpvdTf/gDFBgdArAP+ATEaaH94FrN844VQuvg3sHQSKV3+hsPfvDnznYKXVpko6OqGLTYlShaLqKTFA+bci5wiQpl7yxpr0eJFS2SRK5uMyoV+jdLCUoX7cOpdl1/Sdm2rXLmycXuUn+wwPoZTdnLmSL8djjKfMmWG+r34QSljmaxo8WDrYKyE+mHKlXrzFMAEuYfQoE2kp3lz56tnayTSelKGvxAUOJexTYo1oMKnpz+1iGdvWL9JHcn8a0yJgiciDOvUSXFw8+cBdMY1fbbToJe5DsiJQFnXGygDvLaXu4E2aPsd68i169bS2UBWQZ5YBli6dJn+7MXVrjoAlStXOvVO/FDeeNk3adZYBa8fHIYI5xq0fz0jSJt1cszT3nolLZQnTpryrxn7YZmEsvC2UdJieeGyBhe7WVX6LZGJI4fGCsChybs1kHphrX/K1JkpypavnkJwn62I06fNVIUk9ClKolChQho/HOfDpBNZ1zjh2bhxc+BWSdpBgYL5dBkkBJ/Zs3u3LJy/SJ2E/bBPu0b1CzO9JJVM9O3c/4VrTycSJshTQYCxrsvWnTafd9BtEkFrPYBgLlG8mFQ871wdFCNdbC/CsezKJo009GktN/AHBSZgvZFZEQNqskx7NEeEYYVz064zemF9mu1vyTwNKBIMEOxV96/JozSxBQRnGx15swjaBWfIq6e677kMPsziCJjhFYyJoGrV89Vhx8/evXvVMzico2BGsA0Pr3p/fnlHTpCLtCecJYb58xapwul9Nm0JB0G8jpMtpNjTSyChwj7zOuUxz/Ud2k4kNm3YJLNnz0tbdq4sWEulbYXrF/HC8+jXHG9KX8dSldmL78drKcsMvAMKNqcaBrUTxjUsfX5n3e2u7+CDgeLrBUW1evULpOBpBTPVlpMJ+SHeQ0p5/5auDqK9mAxSVom27voxQe6gg7H/uU/v/vJV+281UMQBN2iFgwZbp95F8ufnWqmzVKTr+b8+pafe/OWFpzQMqn8/oTYYTKYLlujhEzgSJatJM3gTaSicMw95wazOQSDhlJhE8bvLS9B77tixQ4W5f6Di2E88zPFazkoYXxj82ZPrXx9nrZAZYjJmE7q/u3rVdAIXYcr6dGb9KLDEECmL/a1eGKCxxPj34YbgHoPxAjez8odkpRwaN24gefDWT6w+kw7KQ60g5dOemofit2rlavXADzdoMjBPmzZLI/h5wUpVv34dVXKSBeWH1YBQpjiR/th3UKYvDizB6z6onmIjxR8mGvgcSgi7bpjk+L9HMyVaHNs7vfEXqC927CDM/d+h3PEmp2/72/nxBisVJxoOHjhM4xoE1UNUl6vrkSNGp4tZkWhOeUHOujSOL+zx7t6tt6xatSZD7Uln5E7zrF2nps5uIl2sR1/otM7i7vNooP4Gi3ZN3O7vu/aUOW4mHH/nDA9pl3QDeFjB4x7NYRQM5pE0ft6B98dxirVcvKxjuS52ZVKzZjXV3L3lQf527Nilmqy/HPC6LutmqHT6LMXlg21WBGbx5oh8Y04+PcDpJxFwYA0Rqfxp0zapo92ZjJFOemXLl1EHI/+2PSLfcZBF0A4FlF2iaBElzP93ttxdcGEVl7ZLP/VeMsER8BKnjCAIvBCXAO/1oK10lBVLJMRn9y9dIXywmmFZSSYoyd936yntvuwU10WMfwIwZRZaDeVx5EhKXAf6eriLpRYUoLVr1suQwT/pOMkWMz85cuRUocwec6/FkefQf/xREGmHLGcQMCloCel4E1pu+rpzVy3voHqI5mr7RUc96159MpLIKSvI2QPOOtkgpyFT2GmOjnRXRgMSDTHWywvPIdRh7579pUPbr4Vzu4PWhRMNgR0imQ+J3ITmHQk6Kvuwn3jyId37+ezzsV185/4H73YzoLQOLtQJzz7khKYfhE6x4kWztNPrYHf0iOxw7SRo7ZhzmZOhWFAm1BGz5iCvW3YDoABqW80EhNC95LJ6GjbYC4JwhlNqaZf+tBGO891sfH2AWR3Pf5ZsskSMu0fQ/liPR5HyggmU5QF1BvQ5VpJn/D5STmpLvekg/1g+yp1dNultC2dPHL4oy8xeLK3wL+Za3ikzbeCoa9P4QxDVjnPTGfsCrxFjZMigEfJdlx7yZZuv9KSzcAGtsMqgHLIP3z++YMHx55Pf2WpWqFDBiOGcjye6FOImFf46iPXau2+fWtKSySkpyNmHu2zZCunQ7ms99IF1P7TOrAZtmBjGWAEy47wUK8jMfGG2WIXAzJ/RGj3OLIRhrFKlsq4rEroy1gv/ARwAvbhhSZ8dNDjhSayafhbICi8IBOomaLjESpDMQQjzepDSxYwSp67ATEUBwW6oO+rAC2U/edJUjYfthfogGhdOoAc8yibtiC1bWJ6C8pkseO6551aQC2tckKY90J9YIlu0YEma/kT+6fNEJWRg9YJyiKk+mWb1RELX4P0j9eGMIE4F1pWu3/WQtm066kQm3eXuf+n+bde2s3z37Q8a3TEoNCuwbZNtexxqgkD3oxacgOyiODGWuLdJvXOyksmOGgOnlCCnQyOoJrnB6vNP2+paEweABAmOZENHxJRHdDHCHnLgyImADhARBgn+oheDSZRe++GusARUR9bX0PEHwRTUNJnZRYpFkBGUPfGfcRrzB79hq+CMmXPS9AkUB7ZssQYdusvf2Q6GEMc0ndXkL5BPHUj9FhF8LObNWyhbt/2aeieFdU4ITZ8+K027I/8VK6bEuo81Gl9m8I8zx/pSjFc8dR+CGT0+D8zM2QWR7nL3sWzgj0EYW1XuA9oiFiPM6Tffcr069kbs1z5+x6xPG88GvdtfB7FcWcEpI8jpRKxR/fB9H2n9aXuZNnVWpj1/Q/DdWC4/zGI4QOGmW66VVk89LBUrn5f6l+RAFnBiC8pLCGbJ3u0jGRFLx80IJ951tkiQFT/MjHXpIYv7PHWkXukBXRJTrs42EpynUHth9ogZ1A/LDMQDiGeUwOmSdeGzfEIYRZedG+xeCOWDPePz5i1Q03sI6h0PcrbJsRUske0gWvB4ruSEsPfZ1MfixUs1Rj+z8NA7EB45JZLbH5XFfnq243FMZVZYFMhnaBbKhR9EZi6Ujjx5wh9fmlXga3Nh9Wp6vgDHi4ZThtSXwddHyDt1FVoiOBEhj7xjPHXFlVJfyd1ed0oIcsxBK1eslg7tvpFvvu6mZnUGrHhAQ2WgJQZ3pAsHG9Z9iTqF9umHAYR168sbXSZ33HmznuKULGiY+AUEmccUNy5wPni4gDVAl0tat3PPJ2ay11kmBOWNIqYzgyyC8sJ0Xqxo8Il1+FSkmN0TXyI4GuHlHFRXBF/Jlz++GSRlzElT1fQUvbTDAJ7pLPkAgyxm9Zkz5qpJNgQi5PyqlXTb1vGCdfkrm16eLv/kF2HOnnFg2eynYaNUcHg566xSThBVjTm2d2Y588ySeijIq6/9TV77v5cyfb36+kty6WX1tX1yZSU8DksGiiBnHbz0j+ekoRu7/I6rXoqXwLclvaghIh9xI4LGxeMNgvfi+nXkry8+HVgH0V9/l+f/+rRUqfrHAU3J4KQW5DQQZk14hb/3zifSr0/KGbjxaoB4YA53A8MTjz4r9939WAbX4/Lwg0/Ja6++pd9BkPqfTwfA6ePyRpfKlU0uT7N9I9Fs3rQ1rDAkH4QqZb+236M5He4deI+MrlhAqSnuBmf2CPsHBZxF8JwNOlkp2bDlza9R8256bOL24O1a8UIdLV68zP2UthwoFpStQgXTl1Gs4ExHqN7TPE5vvArOdMOHjdb3wqmO4Ehr16SNJsdM48orLk/nOZ5V8O4oWS1bNtUzA7xgaSOWOooQeZ45a44sXbo8Tf5RzCpVPle3D2bJbNwJPxSH6264SkP6Xn1ti0xfLa9uGvZM9Gih6fDenLMeuvidi78FtWkEOCGS77r7Nmn9xfvyj5efl/PPr+RmrZGtA8WLF1cF3fsJ0t/tJkJst40mtG5WQj7z5c0nF1xQxZV1s8A6iP5qruM6jrHJ5KQV5MxoCA7BXr733/1U98iGnYnGCAoCszHW1xnMI12bN29VB5xRP42Vj95vrceZBikTdAS8cNnOVaZs4iKFeeGZG9ZvkD1OCw4H2+TOdZ3Vf4ynF6wZK1etcQP8Ap29BV7zFul2Jq85NhpwOgryTj906KCsXr3GzbY2pt7JGhjYWAPWrUm+sWr//n3qJZ0MKwEKH+XobyeUS+nSpaSwGxjiFUAsY1StmuKwyCAdgmdOHD9Z11AJkjR58vQ0s1naavmzy6uzGfmJV6GIB46zbdjwknRlsXRJylY6rGFjR6c/c5zZPGbhEiXSer4ni9DSTKg+KbN4rnjg+2xDxTmt5TXNjl2cOdDiqiZ6ypy3PQDfYYJxw43XyJNPPaLLMihzKCgZwRJMqTOd4uHLN9YsdhHsi2MHRjIgJ5obT3a9ZZ+ZK9mclIKc4B0453TuyB7AjipIk2K+cY0vVOnhLi/b3eytT8/+2niDlAoqnBlCxYoV0gmyRIECwgEG4coDy0CNWheqQA/XAImdjAfwv15/W/72wuvB14uvyxvu7+N/nhRTJ0WQMzgzSHghCWKBs8MgUQpZNCAgypYrnRJAxfcamJpnzpijM9hEDkT4A8yaNdcpgltT7/wB67qly5ROSChR6rd02bPUPO7fQ73FKcHjx03W7UZLFv2S5v0wkxJDAQUnKwapcPBsBEnjKxuqt7Q3J8QjILATh90QJ9/b3hFSvDfxHbLiyGAvx7O8QjC2sFXsxZeekTf+84r8+81/6sXP//r3y3pqWJEiab34qX/Ws4nqxuREyz7Kdyla9HSpEBATgTSJIrlu7frkjM9xQm5jec/jyUklyEMz5XE/T5QPP2yts3HMbCcKjIUI8wULF6sw9EODYb2c6GvJCk7BbJroVuHiuZMHHIA4nCLSIIcjEev/v277Nfz163bdQxktPJsjMJkhBgkqDl5BcHJ6VSIFZ0ZwZCMhU/2HaZAHlLJflixPvRM/pIliMGbU+NQ7aeGo0PJnl02YSRsByDr5GSXTRnpjXZnzz38eOzGdVYX9/5dcUlcjBB7vQY7nVz6/khB//XdPVpjtEYp1+NCRsmFDWie3fPnyywWuPvEROBWhzDClh3adhND7CPmLa8sV7AjwOa9RhixZDBk0XJcXo+mDpJnPKZ+1a9dMt90UCBYzeuTPCR2nNV9ZNzycEJw0ghzBwnaJXj36aax0AlsgtKJpbFkJW4c4bYqtF0HkzZdPZ6XJimDGLHKWE4YaCjagbOh4xdxAff2NV0UVe5o0wl3am2ItfjeuYLYrdeYZ6Z598OAB9Z5GmMfrrAgofrtcXWA+DjfL14HI1Un1mhdIwULpQ9tiJcD3Id4dECFIg21Ss2fPTb3zBwy8HBV69tnlEhYWloGbevaHmiUfzJawvHjfizqpdmEV3YOeO1dyPXGjgfqhv7ANzn+GO9G02P+8b+8fhx/x+TPOLKEz0lP13PEU0e2EeOpPXkL9v0XLK7Wt+WEZabAT5PTBaNs7a+g1a12oExQ/KFyjRo3TZTp/EJ/MgC8NcgD/iGQseZ2oZHtBTmMi+g6DX+dOXaVb116ydk0i4hAnBwZOnMlyhjGdY/ZjQPWvUSWSdevWy8TxU8J2HJyIEKa33HaDrpfRuTMDYRszUgSCKF++rJ5yRuQnL1QpHsnDh4/SmbA36Ees0D7wYcABsss338vECVOcUN4WKNBxdGPWd17F9PtkUQawADF7jVe5IC2WgYhvsD0g5jne1dTLmaUSt7OB92GnRPWa1dI55LCuzFq9F5QZHOQIrRkgB44L1A+Cglj8XjAFY6Hzmm1x4uRwF841z2y7PtlhWQvljrMhgjz6iVVPOOstm1OcCTOCcsY5j3DV/rgFgN9Ozx/66sE98Qhz+i5H2X7duZt0+qqLbqOkjzPJO9nJ1oKcRoT5dujgERqlbeSIMWruzTIhHsM4wEdp0Owbr169Wjov6BA0ZDTJo0l8B8z6gwcP10hN4coKsxrHOj7e6gE9pJ910Whfl/GR9yP2Mu8bC5QRywpNm10hpQIEFnmfPXOu9O41QFauXK2dN9b65vMcOjLEtZtu3/WUXr36y5etv9I40tOmzEg5kMSTJMpIuXJlpEHD+oEmbYTFN526ydTJM7TuMtP++A7OZb169tNT8PxbpcgDpuA6dS9K+HYp9oHXqlVDypYtnaHiVa5sGT0PnqWPE0UQkmccROvVq+3aXWRLFk6ctWrX0HjtJsjDg4Naw8svVT8Cv78OzXvWzDkycMBQVZYygnKmvVx2WX0p6/qRH9LjvAuEL5OMzPQfnJtxbuzj+vLIn8bIgP5D5Is2HaX15+01FC1y4WQmWwpyKpoBc8XyldK1Sw/p8m13Nc34PVOTxu85JKebbTLj1F9dfsJdwNoq+y5xKrrrnttSnNkI6BEApiH2Vh46mFyzEI2+t2v0QQeUhEBgNL6ioe6DvPGma1WrxkwWBEMiHZa/c/zmtde1lMcef1AudDPIWAdMBuYqVSpJMyfMgzR4zNjj3Sy4W5ee6ogVEp7h3iNE6DMIak4l6t3zR93ZgGcz25MG9B+qyzL93SAQ2oMM5J+yYEZBHfqFHWmuWrVaOnf6zs3OJwXGKg8Hn0MZwYrUy+Vn5Iix6cKIAr4TnFqGl7l/YI0X3oeoXPgBRNr6yHOrOiFerny5hOchHqgfyocjZfEhCAefQ4DXq1cnzTJClhJluzjeoLjTJpo0bSQlShZPvfsHjLUowvPnL4yqrVPexB1o1LhBoDJMeghgYn0sWoAPUcq58hmlzd/5LA68HDxF/2MpBQVjlVP08ZFo7yZ55BVhHws8OZo8nAhkO0FOoeKIw3ayNp9/pabRdWs3pJvBJJM8eXNLjRrV5G4nlO+8+xZ33Rr2ustdDz5yrx5p+re/PyvNml+heyrDTW85FIH1a29M62SAwoBGjbaK6TFcY8VLmjPUH3/yIXnl1RflvvvvVMcVtsrxN2buOMXh1Y2TzMOP3C8v//MFafWnR6ROvVqB68rRwCzxhpuukZo1qwcqAqxtc6jDZ5+21a19nPuLNSP0Lt734Wfu05EJP/ml09S/+fp73T4Ygs/gmPfLL8vVrH3EY44FBNd551WQFi2aaGAPPzxuwfzF8kXrDtKzRz83u95yzFrgzQscy4+79PjQGbM1TzhnEvTG/3lmmZjUr2hyeabLMyOYMXE0b5EI+12p8+ouH0WLhBeWxwvK6DwneIjjH45cuXPqljOcBbMa1wpSfohRqQ2Hv40kGvocApc+TX8Pcnxbv26jDHLKLz4mGeWH9IoWKSJNmzWWei7NIEWKScWokWPlww/aSP9+Q9T/JNRPuHhG6ArdIwIhDpkc6sIBMIST9eaFcY7dH7EesasfTWARZ1Q+8ZLrDUfqzyc8FAaa29BBw6Xdl53dwLlQf090IVGJmJQuqlMz0HuaGQx7nQkRWbdebbn44jphLxotW3WqXFBZt1XldzOeIMEEvAd7r9EiN/kOrghBflijZGYYNCsijcEDU8zmGYFCtH79Rjnv3HPkrNKl9F5Q3nhfvMlLlymlCgzbfZq3bOKUksZy1dVN5YYbrpbb7rjJ/dzMdfxaOlAygyV/QemRR+6H/g2C+yg8mOYnT5oW6NXKTHyzKyfMcmxLw6+AAR0lIDRQ8AwGCCL74aTTvm1nDdeJZ7gfZiGULRH22Frln3mzdkhwGJZzUo77TGs1YWDBhMfhIsxU8OxlAMznLu92OtbsSAMrElaB77/r5fK/MPAdeSdM3o88dr9uC4w0E1bz4opVujaIU2UIypJBublTQrCqhCtzljQ4unHTxk1pvg+UDevQBLlgjT4oDd4fy8KkiVPTlS+fb9T4sohr09QV5zZz/rPfV4FyrFnzQj2cg5/9afA7dY4ixP57/64QPs2WqvsfuFOPXfXXbQisKXhl403tBasaSkJGSxsIFtoX9ZAGV5zUHQovnyFcbDwX417ooJdw5ck23IEqaNO+C/lgto3DX9AhJyFIl+2o1Avjkt88TR2xrMRYyJp6pLYJlHnRYkWcMlpItwcHxZigT7GuPXfOPD3WOXT2PRZQPO3JC3XEUaoowLo05hRn0gsy85MnFGAmXEHLQTxr6JARWp5pcB9jeYG6pk0G1UG0F4cQYb2N1G7iJYcrmOSqCgkglEWcKwixOmjA8GMVnAyoambTDz92n567HY5Yii5cZ/OCSfWH73tLl2+6B5pXgfw8/Oh9cuttN2hADz8Mps8+9ZJMmzojKoUSwcdWs6f+/JieKZ1RZ4Sg9+b9QvcjvWvoM3QOBgkc2sJ9ns8yyx47doJ8+N5n2nnDlTlpYIY/44wz1CuZARPBxLGRCHs6FMLTL3xD8H1m3M8830pN6OHWWilflnQ6tPtWndz85yyH4I1QKIoVK6YzeIQf73vYCVu25rEXd8uWLTqo+4XmMVwiBCwhAMd117VMCcARoWw5EY3jJ9984x21UHnro7gbbN9+998qjIOEGJ9FwaB/cXk9vYGzo++59za578G79D2CQHgSSOajD1q72dqGNO2PPLzy6gty0y3XhX0HynbpkuXyxKPPqBDy1jVKHdagu+65VQfEoDTIP0L080/bydKlRMVLC+fnf/TJ/zStoO/zPGaXzz/zdz3y1Pt8hMj1N14tj7d6KGxUNT5PO/vsk7ZqJvZ8XeGZtFF/jITMQNSxDz76r7bxcO/CkcRPtfqrniHvzQo7Ylpc1VRa/enhQE9yPzg8choaSsF+n6WQtsR2VayNKDrh6tYLijXK0rdff68TCW85eyEtfG0QqEWc0kK90y8J7UqefnWKQKRlLMYyTrYjVCrx9P1543sLFyyRF55/2Y0N6ZUKvk99xXvCISGvWZokPG+yOOFN6xQ23sDMFF7751vSo3tfNT+fCNAwor0yAhPQnFnzZPSocYEzs2TB+tLMmXOkTesOui0tmi174d7P+3MQf9TlfHn3nU/U6hDpWaRFJ2p4+SXy9DNP6Np7OEWDdA64tHGWYWvMsKEj1VQ9fNhIV65zVZiHE+LMNrEi3Hv/HXoiWKT1UwYuvNcffvQeqV+/Tti99rwVwmjTpk06sxgxfLT0c/kZ2H+IesgzuDLQhhPiOntxg9ejTpm87vqMhXi8kDYe3Tg4YQL1wt+wxuDZHmShOlEg/+dWrKDb4/x1SHlecWXDlGWt44S2Udcm9u7ZF9e13ylZKPoZ9dNEwfn1hCplFu9XAlG+li9boVswWe6KBqxD17o2/fAj96nFLZzfTcp4cUgVcJ5BYJ/p02bKggWLVQHQ5bQwZUB/wXrz2v/9TYV4ZsDiwEw9qA5iuagrlJdkcsIKciqIgmQW3rf3QHnj9f+5ipyr97OqAWcF2lhd52aZgPCthJbM6vdDwM12SsRnbibDunlI6CUqH6SDwoBXNj4N//nXO7Js6XKdtUYDWvgVTRrKi39/Rpcyws3IkJ5BeY70FsyacfJ65NH79SQv1v0zEpj8ne1oTz/3hLR0MxvWjsN9J9YiJBkcznBqe/GlZ1WTRyhllKdEEfKM9w7YzIo47pO941mVj8xyhqsLZmHFSxRLveNwWSasLSFJ9dcT/B0yIt5eGev3iV/AzpWGjS4NNA8jqCaMmyQzp8+OKm465U8/u/q65vLMc610q2nYPu0I7NNhOhZpFC5cSBo3biB/f/kvToin+EMczzrPEW+FRcEJK8iJPLZ40S+6Jeir9t/oHsOwJsgkEHpSooRZECgqmJgnT54mHb/qov96T5jKiETmDUHL2mKHtt/I15266ayWvMUj0PkeM3CCM2DyJFxu+7Zfu7pcp9vrYkmVjk8c+mefb6VOcBXOPVt3AmS2gyKoWKZo0KC+PPHkw9K8xZVqMo42Pb6PKf7pZ5+QBx66W9d+MQFmdv8/30KAE34V5eDFvz+r/6JoxDsIxfJtZjIoNClR21LucUgLsxv8AyLjqdN48uxrGLx/tKlhwalcpaKrm3PU0qL33Pdx5CPUbmbI3JvE8f6JJGw2qKvoeyBtEx8LIuj5Z9D08zWr16nz6Zo1rm+7WXo0kCYWoBdffDblPHOnLEYS6JHgO8z06ZO33XGz/PnZVmpBCP3tuJIFjz/hnN1oBDu275ApU2bId126q1d1uPXiZILzBs5srEOz3ohAi/86pOuYu/fskQ0bNus2C0xSPbr3UY9nv4NPEJhyq13IOcznCdHh/HkjfZy6Nmz8wyM7Fth2hWPLooVLNZwsGjZyHLMl/UGHVP4L0zlwuEIp2LN3r6xbt0FDOg4b8pN6cnMUJqdpkUCR0wvL1dc0VyERTUfjM5jVSxQvLtWqV9XgH5QFswXeWwNJoByQWQ+a59TkEb6EiWTdmuMref4dd9+iIUr1HPQo8uGFz6NgMKNnzbJAwfz6DNowChl5CasEkS+c83Ln0cGLIDh4CN/olJRb77hRo7eRVix54rmrV66RCeOn6HeZyXNRdzyDHRPhHNUgdJ/PUm8ocnny5JVKbkC8+dbrNXBMpPzwfOqc4EzUc+j5XMzqGbQRBOHSoKw4UGjIkBEUj+f7uXQtmPV9tjMGObt5QUBg/Vm1KuWMBd4HZ0EilVEukWACgUBiDTZN/l094bBau06tiOZ5tjIS4x3BRr69aSTuyqXOqddc2yLikgv9kKUlTN7e79MHKlepJHVjiEnAM1B0Kb+FC5don/Omyd8Zp8uXL6NKNveigfRwgKt1UXVdsipYqID7rlMUXFug7kAVjoBuxHex1uGwh4n+kssulltvv1H7NVvm+HukdgI4AuIpzzjnfZ9EXowROE/je5MsThhnN7KBIMNJhiMUcRYh4AeC6XjADOsyN1s7PYJXZ6xQ0gcOHlCHGrY+EUKS2Wo0QRVC0Cjwgq/jBhQVrqn3Q9DBevXsr9GX4gVHtDPPKKnbeio6TZdgDkSlY+0W7ZdOlMN1FoQop5PhCMO7sRyC9zKepCtWund0v7M2GIIZEgFWPvz0bTV9ZTS4+gm1FQZb9oouWbzMtZVVstEpR6ynoYywXHHYfYb9+gxczN4xgTMrq1SpolMGqrg8pMQsz6izRwN5Yj1szdq1aklasWyl7hzYuvVXN8Dt0fc/7AbWnC4/CLUCBQu6cjxdBSsChuMgMV2Tx5AzVKz5okyWLlmmuxZoB14QPjffcp06N2WULgMoW/rY4onyhFLbomUTFaaRQHmhHkb/9LM6ImmDT4V2cvU1zdzMvlrqnfRQhigPxIWg/rzQFuvXryu16xKzO/JBJ+SfXQwc8EE4ZLyqOXrztMKRZ3s8H+cplE4iCHpB6WIbJmMCsffDgf/Oz2Mm6PNDgigZICxRrsI5ZQJlSMQ0lCsvtC+WHy5zgi/W7Yz0uX59BunOBj9Yjxo0uERq1a6uylYsUPawe/duWbt2g/qQoIhtSu3TOIUeZFLhypTxgmcxDhE0CqUeRzvCDHOqHW02mr7DM9nlwM6RnTuSFzCG9lq3fm09pS9ZnBCCnCzg/Ytpd5AbhCaMmxy4nzYroTEgNEPmuUSBloxTFsIvs+9H59XZaEBjZflh3769+m8ioTHSSRA+eJCindNZ6VS8x2+u/hCgCHI6+043s+JeEPEKcj+UKdtgmM0hCBCcOKkgzKhHhDWDL6Z0LgYABuZYBWVGhOoTgcr2KwYgyoNtO+QHpRTTL4MQZ4CTj+Ilimps65D3frx5wjmI9/e3LcoYpyWUv2igP+7ZvVfzk79APleG0S1j4LlOO/ArElhymDkF7bTwgvBjUFUh6Hkc24+weNAOo8vHIXUaxZM9pbyjM9lSbggTDcjk+Tg/Mh5oOURaPnHFjjWC+o7FdB0rtGm2hEbEPR7LmB6Q5MmylqX7Pu/jvR8tzLz9aQLpMqPOyGISiVC7pf6xbjCWYFHgmSgm9C0dm13+ixRxYxGXG5MyUu7CwXPoq7q2n7ksZwjjHQpTZvMYDcddkPN4tOARI0ZL/36D1ayrneD4ZssIAx2UC8GQ8nPKfQKohAKyZESiBbkXOrrm43dM2+Q3Jc88I5TnrII2HCqTUH6AdXRvnhJNqO9435V7sb67tw/GW26xPD8o/5khs+kEfS+W/EOsn08WiSpLL+HSTNY7k66OK+6xKEcohTwnUcp4MsrIS7LKxctxE+Shx2Ji7vVDX43Ks3HjZh2IjZObZApywzCMU43jMoIixDFlsG/5/Xc/0xjT7As0IW4YhmEYsZHlghwTCfGlB/QfIm+9+Z5MmjBFIh3cYRiGYRhGeLJUkOMAgwdl2zadNMj92jXr0znFGIZhGIYRPVkiyJlt44E4Y9ps+ej91np85vbtO20WbhiGYRhxknRBTsASQn4OGjRcPv3kS5k4cYqa1g3DMAzDiJ+kCnL2zbKdrGuXHtLpqy4aR5x9nYZhGIZhJIakCHJM5myy55SnDu06S9/eAzS6l1nSDcMwDCOxJFyQE2ub8IbsDf/yi45OmE/VAC+GYRiGYSSehApywiJy9nK7tp2l63c9Nda27Q03gjDjjGEYRmJImCDHnD52zARp92Un+Wn4aI19bV7pRhC0itBlGIZhxEfiZuRuVB45YozMnjUvptO8jFMTDj7gZDLDMAwjPhIWa51khg7+SaZMni4HD6Y9gtAw/NSuXVNuuPmamI87NAzDMNKS0ENTSCqByRknMXp6UZJPBDIMwzgVOCHOIzcMwzAMI3MkZR+5YRiGYRhZgwlywzAMw8jGmCA3DMMwjGyMCXLDMAzDyLaI/D/0Iy9VrkKgrAAAAABJRU5ErkJggg==;" parent="1srTuBoPDHxygdRqLbZh-8" vertex="1">
          <mxGeometry x="6.149999999999977" y="30" width="127.69" height="30" as="geometry" />
        </mxCell>
        <mxCell id="1srTuBoPDHxygdRqLbZh-13" value="Request for Integration script" style="text;html=1;align=center;verticalAlign=middle;whiteSpace=wrap;rounded=0;" parent="1" vertex="1">
          <mxGeometry x="360" y="160" width="160" height="30" as="geometry" />
        </mxCell>
        <mxCell id="1srTuBoPDHxygdRqLbZh-19" value="" style="endArrow=classic;startArrow=classic;html=1;rounded=0;entryX=0;entryY=0.5;entryDx=0;entryDy=0;exitX=0.5;exitY=0;exitDx=0;exitDy=0;" parent="1" source="1srTuBoPDHxygdRqLbZh-8" target="1srTuBoPDHxygdRqLbZh-5" edge="1">
          <mxGeometry width="50" height="50" relative="1" as="geometry">
            <mxPoint x="220" y="280" as="sourcePoint" />
            <mxPoint x="270" y="242.75" as="targetPoint" />
            <Array as="points">
              <mxPoint x="150" y="195" />
            </Array>
          </mxGeometry>
        </mxCell>
        <mxCell id="1srTuBoPDHxygdRqLbZh-20" style="edgeStyle=orthogonalEdgeStyle;rounded=0;orthogonalLoop=1;jettySize=auto;html=1;exitX=0.75;exitY=1;exitDx=0;exitDy=0;entryX=0.25;entryY=1;entryDx=0;entryDy=0;" parent="1" source="1srTuBoPDHxygdRqLbZh-8" target="1srTuBoPDHxygdRqLbZh-8" edge="1">
          <mxGeometry relative="1" as="geometry" />
        </mxCell>
        <mxCell id="1srTuBoPDHxygdRqLbZh-21" value="Configure Script" style="text;html=1;align=center;verticalAlign=middle;whiteSpace=wrap;rounded=0;" parent="1" vertex="1">
          <mxGeometry x="95" y="330" width="110" height="30" as="geometry" />
        </mxCell>
        <mxCell id="1srTuBoPDHxygdRqLbZh-23" value="Theme" style="swimlane;fillColor=#fad7ac;strokeColor=#b46504;" parent="1" vertex="1">
          <mxGeometry x="530" y="290" width="140" height="70" as="geometry" />
        </mxCell>
        <mxCell id="1srTuBoPDHxygdRqLbZh-22" value="" style="shape=image;verticalLabelPosition=bottom;labelBackgroundColor=default;verticalAlign=top;aspect=fixed;imageAspect=0;image=data:image/png,iVBORw0KGgoAAAANSUhEUgAAAV8AAABHCAYAAACgR0TDAAAAAXNSR0IArs4c6QAAAARnQU1BAACxjwv8YQUAAAAJcEhZcwAADsMAAA7DAcdvqGQAACq/SURBVHhe7d0JvHXV+AfwI/wzZyaFMsuckEgJpSIRCYVQCIk0qMxDIdJgKCIRQlIyREKmJGSKEBGZJUNkuv/zXfrd1rs78z3nnnvfzu/zWWfvs/canvWsZz1retbaV/r73/8+11pC+Pe//93673//27rqVa/a2nPPPVuHH35461//+lfrWte6Vusf//hH8fOf//ynNTc317rSla5U/jfvwf/6HgbxFz+uV77ylUtauV7vetdrvf3tb29tuummratc5SolzAwzzLA8Qc+o67vvvnvriCOOmK/3V7/61Vt//etf5/+vssoqRQfQQ894xjNar371q4ufgB8O+BkUS0r5yoAM/+Uvf2m95jWvaR100EEl457JFIVHOS8WpJsCuM51rtN63ete13rCE55QaErBcTPMMMPygjqtDh9zzDGtpz/96fN6xnP3Olup55C6fo1rXKN15JFHth7+8IfP66vgve99b+upT33qpf/6Y5VLr1OFDMZRsm9961tbb3nLW+bfReFiyGIC84HiPfDAA1vbbbfd/LMU1gzDgcByQf53c0Hz/wwzLBR/+MMfisIEeiYj6uaVi37629/+1jr00EPnR+E1rna1q1161xvRG1NXvjIEIehTn/pU6fX+85//LF19SKXLdTGBric/+cmtbbbZZjbVMAbgZ91o1fedkDJvhpthhoWA3vnpT3/a+v73v79CvY6ybYIu8pwMfuELX2j9/Oc/H1keE/+S6fnq3X7iE59oPfrRjy6tiox53okRiwUtn2mGfffdt7Rqs8q/cNTlOWjZ8hc3wwzjAGV6/vnnt37729+Wet2vbpM9o11Xfs8+++yR5TJpTVX5hmiMOP3008vcS1qhLLwtNjA4NKDHdMM1r3nNqdCysgIvf/zjH7fOOOOM1le/+tVy7ef0UoYV8hlm6IVh6jTZy0gc/vznP5crRTqqXE5F+SI2q4Luv/e977X23nvv1kUXXVR6m/Vcy6gZGwVpkaT/4Ac/uKyCXvva1y4KuWb8DKMDjzWsFi833njjgd3BBx/ccZ5thhlGhdGsek0e++mZvM+aj3WgYNiO2Xxc5XeREWJl2pzLjjvu2PrWt75Vnk1zXjWMXW+99cqi35prrln+zzA+EDwKOK4f4uf//u//5stnhhnGgTXWWKN1k5vcpMhVP1n0vlay6667brnqqI2qs6Yizal4lO+uu+7aOuecc4ZuPSYBjFx//fVbH/zgB0vB9CuQGUYDBZzWP7LQzcXfDDOMG7e5zW1at7rVrYruIWu9QA4paTri8Y9/fOtmN7vZ/PNhkbQWRfk2CZT4BRdc0Hr2s59d5vwoYcCExVbCdau3zjrrtF74whe2bnCDGxQmL4UGYWUH2ahd/ayJfhVkhhkGBfmylqPzZwMX0AW1I2+5mp6gE65//esXo4D0dkeZjoxsL4rypcQk6CoDJqtf8pKXzNvYpbJx3i8mwjzXt73tba2NNtqoMBxynWF86KdAI5hQ30Pz/wwzjIp0rDbbbLPS4TKtFaj3tV7wP/6f85zntDbccMNyT5YX0iFYFO0S4qNcX/ziF5ehvS3ECyF+oUAXmm54wxu2PvrRj7bucY97lBbNs5ninWGGlReUanSP3q81HlMJ6dFGB8Qw4Ja3vGXZ2ebIAwt1C+kIJN1F0TDJiB7vAQccUHqYCKCQ06JMA9I29MDQ+973vuUZWtHmuhAGzzDDDEsXqds6gO5tojrllFNa+++/f+tpT3tamVp41KMe1XrWs57VetWrXtU64YQTWo95zGPmR+YL6TQm7Ymc7YBALYsrpeuK2MMOO6z10pe+tJgMaWGSkcVScmhATxS+dJ0fYT+252j2zHv/F8LgpQx5rPOWcoI8b/qpkfKKHy73vcIFdi8avr373e+ej6sfrA+8/OUvX+FAkyBx9Eu3pq1Tup3ob/6HOmwdX9PfMEidGQbS5KyZUCLQKQ+9kLy4RgYmhaSFttSxJvjxrhsvOuUt8jsM/5OOMM1w+MnxYzoCLaHJFTrR/uEPf7hsyhoUE+E2wnTXXaN4P/KRj7Re+9rXzivcZI5bLCQ99FD+u+22W+spT3lKYapneZf/KzMuueSSUga14iVY/l988cXlcKM//elPrQsvvLD1xz/+sdVupMu7lFeuKUdh3Y8boa0uo9qlMoD/veA9GhMm/pOvxOdEK3n+3e9+1/r9739f+GDUptGo0wNy7tlC5UX+pI+Wmp5eDqSb3hs6MkxOPP6zn09Zule+zXzgc8pyUgiP0FWXJVpCr44Z/qNXGaCX7PETvwnHCeM6LP/5l+fwwTXOc1MLGnrlAp4p/1HSaiLhJ9LzDWNAZsynPve5zy3MlIkIyDSAmQrM0XAvetGLWte97nXnGYq2KwLkN0JGoBww8u1vf7v19a9/vewkI/yec8Cf6RnCeOMb37h173vfu9hCmyv3TFzh6yB8FO+gPV9xid9uw/3222+FhRFI2bmuuuqqPQ83EU/8oxXNZNE2U/bmn/vc54qC0vBQUMl/KqJVcXahG2ywQbHzxItxrBEIjx58HyQefuQ1o8cobvlCs/x86Utfan3jG9+Yz08Uq7DyY5PA6quvXhaP7n73u5eyFB5ynQSUgfg5NGncfvCDH7ROPfXU1i9/+ctycA0FzB+gF+/JH37f5z73KfQqBzxImUZJDkM73oGGVTrNsOKtkfdONsvccI1Be77iKeU1SeWLMSo1uzimZcE0la+MP/KRj2y9853vLAxEo4KbZ0ijAFZGRKjOOuusMv+ucVQJgBCGDxHo9GgTDlQIuwAJ25ZbbjkvjIPwcBjlq1cnfXbXbDLR1wnKceeddy5zd91Q0+b+85//fLG4+djHPlY6BiD+KDOVM8o1CC802o4VND+oMarjHgYJd+aZZ5bOgPz2qx83velNyxSMTUCRX7AN28KR+UmNRw1+UrZROsmXxaRddtml8K9X4zUuSNfZCEcddVTrxBNPLIfUBHgRWeokd2DX6SabbNJ67GMf29piiy2K/07Ksx/wQWfjmc985nya/SBtc8C3ve1tL31yGYaddpjYnC9mfOc732nttNNORQEHGNRk5qQgLUJHQN2jS4WxVVUrWhcYP/6vDMBfTt5qfrvqXX384x8vjY/TmbyX9xp4lgraBP/4VL9nH20koSLoTXnfpKHGMMoXetFT4w1veEOpSEGdb0CH3pUKr+KTzybQHnmpaav/1/Twf6c73amkqxG60Y1uVJ7XaQvbTbbyXkNggaepNDvhbne7W7EWooTR+rWvfa3k3YIRukI/574b/5rlRLE873nPaz3xiU8sK/91PIMiYSDp578GzuFZxx57bOszn/nMPI8g6dT+6/fyAM18aDicOqhDpXGmRMUhbD+Fys+PfvSjws9BgefycIc73OHSJ5dh2J7vRLSNQiXYtg1TvBiHEVx9P2knLRlNwd3znvcs1hYUL9SF261yLFfoNRBCVzwgtOeee27rSU96Upnr/vKXv1zy3CnfnSpqgGfN94bsbCW33377MnzUc5M25LoQ9KJH3pR1NyR9c9zvec97WltvvXU5pQ7NnRD/tWxA/b+mh2yR9T322KOskJ988sklDv5dU9E6wXPvazT/94L4X//615cypRCUdWQ96UM3/oXOpEnxO84Vjzo1TIMgcYk3PVfy8MUvfrE0Ts9//vNLIwGhFWp63XM15KGZD+WuMWWhYMSjU2V+GJrhm/B+GF4D/3HjwEQ0jslyn9owl2huxnySXWPTcD79Y1fKXe961zLE1DoC5q9sCreG4av8ERRzaF/5yldaD33oQ8t5ySpZLcwLESZhpaM3a+hMEUgjyn8xeJxK20RoI48ve9nLSm/b/CJl0E0hDQPxp3Gj3OVfL+zNb35zmWf1XDrj5gGlRX7JM4VjYTB5rRXwoKgVlXJ00JVPZVkDGJVP6BGvkZZPgW211ValI5bDkbzrVm6DImlwP/nJT8q0DbPRhZy12ws1nxaCxDORaQcMP++880rLFCZMghn9IE0VjSIypNLjVeApNNdhBXU5IIUb4TbEs+BJKKMI+IlyxIf0UoZFeJi4VFblnh5Zc4EMhp126AXpJ93mtAOkV65B4C90Jv+jQrogr+Gd+8RpFGBeVsMP3jURGYRMO+i59eOJjoQFSDaoUcTikXZoGEZpCssl3ZTnXe5ylzJacAbCoBAHJ32NglGWaa7wHlylIc1+89u9ECuP0B0eoNuXcGya6gZh+P/hD3841LSDaTWjjNvf/vaXPrkMizbnW2c49014B93eLwZq+nrRulggHAQRwp9JQD45vZeHPexhZUW3U/678cTzvOv0vhcoAAtSxx13XFmMCuRdnCrcOJWvikwBUr7mnlV8z5wZbOoLD6JQ+qUnPuBfPPGf8DW8C49qhCYLkuaWWRYk78C/9wkPwyhfDRqnk9NMvxs9NfrFnzhcbT46/vjjS+cFPI/8dkIaol//+tdlFMDqAjrRCf1o6YVucQL5++QnP9m6853vPF/narqTv2GUL/+Z812I8g3dI42HQngiqYUU8i7I/2m4Ov36fhoOj2o3SVBweh6G24bA0CnNTs8ohrqnMiyEY+L0ile8olhR1PnFh3EjdEZBSkPeX/CCFxRzqzzvx/PQxh+Z9l9DwtV5gNx3ijPhzf86p9q0h2fi4/C2U7hBYeRA8UIznm70BMOky6+1AY1k6nh41A3yRt6c3RLFC810/R+Glk7oFidH/oyCTDOF7wvFQukNEs9IyjcZmY+kzXDCIMNWNF1n7vJOJWTH6DqqYhsUhmQ2tqgAowieygbDho1/VwsrPrWvIZh0fgHNFC1ZtGpvqgEGTbvOq3vh9OSiiIcB/2h5//vfX3gA6su4+BB6hqVrWIj/6KOPnjcV7ZceXpniyqFZ04Qzwk1/aazwfVzKc2ww7bAQ127l5g466KC5dqHI2cz1cfi0ww47zLV7Zh35OQ538cUXz7UV/Fx7yD/X7rV1pKOXayuNubbynmsPbcuVazewHf12cvEvr2uttdbcmWeeWeQEXei76KKL5p74xCeOTWak53rIIYfMtRu3uT322KOkPyzd6OHwLPmOw5P4qa/dnHS51VZbrfw/7bTT5v785z/PtRuGwoe4lFl7iDx3jWtcYyw8adLo2nzWy8V/He7ggw++HM1Nh/dvectbCv9WXXXVuatd7WqXi3sxXcr/8MMPvxzd+d9W0B3DdnJ4sfrqq8+dddZZK8QVd8wxx3QM13Th6chzvukN6F0wH2Gs3M5oaV2WXAszJWS4CvjFgN3hHExjLMTg36Sgx2vOcZAhd8qNzaQ5PlYR5rRYinjOaoWpkB1gzl/Wc0c75728NZF38uyTQc7PQAd6hllwSzzm8Fiv1DxL2PixsGaRhfE9eRwk3yC8uM39cRtssEHr1re+ddlBBfJr4c68rGGsOeTMbQobmpp8EH96uve73/1Kfs0Z1kjYYeZ8xZtwtV9psc9VjuyNc06t0ZZpGDatrgkvrGun8gsiP9YNPvCBD1z69DKEx5wFXeZ23cz4mhB36AgN7caqLIzbxOO5tYpf/epXRWb4reuUtMPfTqj5/81vfrNsjBBH0vR+mgtuI/d8tRynnnrqXJtRODFzHZweQLuA53ufm2+++dwvfvGL+d5PJ76Oy+ldt4VsvpXt5dDXVlpzbYU9d+GFFxb6OPGgM//blWDusMMOK72a5K1f/N63K+QKtA3T89Xj5G/77bef+/KXvzx3xhlndHTtRqHwdtttt50P2y9+cctDWyHOHXvssSV/eujJb8pIj869nuu555471x7KlrBcesbi6ZRG7dqN7jw/w9vwZJier7SkrQz459DwzGc+c+4zn/nM3HnnnVdGVsoSr3/zm9+UZ5/+9KfnNt5443meRi57uaSzxhprzJ1//vnz9MaFV3i09957lzCD5IHjL3xz3XPPPeeOP/74uXbjNtdWinNnn3323Omnnz7XbrTmHvGIR6yQ10F47n38tDuIc7///e/nyxW96B+m58uNo+c77zpF0s8h/rOf/WwR2jqDM7eiwxdCQmDuda97lQqgAqvgKfxJOJWt3XMrNKSiNWmrXbuHO3fCCSeUihrhjJKIoHKh3TBOOJVykAp8xzvesQi+uNA3jPKNbO22225lKqWZVw6drqecckqJUxjXfvGjfZNNNplr9whXyGvyL87cc3W5UfbyJY2Ucac04qS17rrrlrTElXSSh2GULz/yKE7lqx6edNJJhb7QnHhDe54phyc/+cklnkEUmLRCU7vnOx9v7aSr4b72ta89H6aOo5tD/3Wuc525vfbaq5RtTStXy6N0NLIbbrjhvPLtFGftIgfSWXvttYvSrOVbnNOcdhhpwY0Jjy/7MidpZ7DVq+t/RUa7YpTh1AMe8IAy5DQU9KzN/OImBYuehpfSUDb90rr5zW9ebCPbAl38Z1iH1sAz/7ntttuu1W5MynP5S346OWj3SMvwbhTUQ8zcB/7nWVuZtd7xjneU//ySy6Rfo35mx6NjTp0bAd4lvsQd/+7DD/dtxVuOI2WChQcJ1w3eG/azHgD0LQTCm/q43e1uV6YDHvjABxb6UhelF1f/N5xnAWNKit+6jDtBGDzgbJJI/EH+OyOkrYRX4G8n1Pm2AYsttN2B6GjykTld/HtuG3dbwZXzNORDGO978dI78f7sZz8rU2Z1GU4bA0kA4jEZweZfGM8z4YHMfc1wmbIigO7xxo46R2mah4ugeNdPSEeFMmq36mXuMJWmk6DV6TulKXacdeVKuOQH7e5VCnvp5Y+fXg5Uyt/+9rcrpDkoEkez0gdJx3xje4h66dPLZLaG9FNRNTR2Q2l4hA9tKZvkFer/ubZ7U6VRtatKOv73gnD4YI2kW14GRXiiHByJqhFp0hfXfO5qTpUZIB4NUn/DYzvfWK4kfRCnU9ScE5I06vdN1LyyFuDsFyeWecbV9EPu41ZbbbXWPvvs07r//e8/r6wTpgnvpJdre7Re7vkVZlj0ytcwSDwDUZCKpwKxnTN53SmzV3RgKl4BwbC4okegVzkNELhe5ZR3esk5WaoW5AhJMw7PLcrZRWQrbT936KGHFl6ksowL6OJUWtunbTHtBXmTvquFISdjjVIJA3HZSPCgBz2orxJLWei5WcBbCMSDl3q9Fuma5dMP6LbIlG+R9UJ4jE86XPLZTI8+YM/tuXz2grLiRwfO99OG5b/6ZbHayWKuwuNFGs1OSB4sGhuFyb8ww6Jb/MMi8Qycc3uyGYxb8ZbRcVailQUEIcJntdzJYXZ4ebaY/NKrSyPQL22CQPH6rp5j/hJOmAhtJ6j4ttCqRDvuuGNRQr2cBqhXfAtFfXJeN+CF9OWNLaqeY+gZRQmLT68tn6AaFI58XAjQz2lAcoraMEie119//Z6yAUmLM51VK62E1fDp1Q8KIy09dvwfBtJLOZE/VlbKwDPvmrIVuuMoXodLLRUMJHEU7ytf+cpyFFwyO8PlgTegQhoaGZYSCPwapaUdFbazplJGmXZCLZjOtKVEDAXNj5m20MuRJ++bkCdxJ8/y2c3x5wqd4looDIXPOeecS//1Bjrk05wtWpI/5TOME05crg74NhzuBfwKP5yjPMhwvx+kqycZ3g4K+WW6xSxNQz0Ikkan8tPwDSrj8o33DqMflu7onfCS+ZvpMvXN/DHTOrLfySkfjgKGXvWiG8Ylu4mno52vl/GAWY6Zs28+lTEV7ooOgk/golzwhSBoqPQGvZ8G0LH55pu3TjvttCKo/coL7bVgCWOO2qLaLW5xi9Zaa63VWnvttYtCN33glDr+hSMTUcJ15eiFYex8A99wM0/Z6bBvNr0bb7xxmRbrhZSXXnimHNCN/kEURzeYRvjQhz40v+W3E6Qhr9Iz5HeAfb4e4bmyGtTON7DrjELpx+9ucPaGw3kuuuiiS5/0BuX23e9+tyi6gB1u/jflqBvYw5q24n9aQKf0p3m2Q1flq1IpVCu6Bx54YGFyhNf7QZi8MgNv6grlnlG+ozQNs/0ftVKMAxSbk6/QoSx7oVslSBkbJlpdpvhyb57zEY94RFHMNiiAeLh++R638nWYOGUa2ewGdKGPP7Ks3LhRIJ5BeBtILw0VpWvrtakp8aB5WOVr04le3CD8biLxO23Mgpet770QGjspX714Iwl+oB/tGnGn7Fn0w4tpAZ1oXnIH6+SluSmruVp0zxbSO1jZoNKqTK54497nkrbddttS0foJ4SQhbUMyCxLKDH29EFrrqzCcvFAI5vv0tMyZGWZqlPU2fRmEjNhRpwc4jXzbdYb//dKOklLp+ynqQaDsDduj1HtBetLlzzSJzgyMSoNyGVbpBinbfjQHvWikvGo6+sWpsdb4CDMNWVkIxkVv4rlc6eUF7b7rrrsWgUnvIExebkybFPAm/NHi+Sy++SX8GbVijAMqgJ4Ry5Q0BP3oSZk2y5bSSEXh0tiAqy8evPGNbyzDSFMtDlSJvEB9nzjGjWxn7Vfx0cKNqxOBL8PEFV4Io6HqR28vhJejytm4ymFY++3MM9dycUXFfMkpDEJBIKxeWsXW20nFw6z09Gb4X8XDK70YZwkccsgh5SwEz/JuWkgZWVH2rakoYFeCPwht4hAmclHDs/qa+AylzSFaCFIp2Rt7xx/ZgUnwhakchJ5uSJ7AtZ//XkiexFnH2w1JDy85o0nh8WNYniTMJHjZCc106rymBw/JYzeIRx2BadeRUTAuehPPCsoX2ML5gF4OsphhRYQnqXR2CjHTGtZsZpIIjebm2Ng6UET5et5UpOMGnjBZ03ibH0y6aQAmgX5zlksReIEno2BSfOyGZnq1XqAnhoE5+8jEcsO4+J545pWvSsPEyK4fH6XL/FR6LDP8D3UBsAaw0YBFwFJDelV2P7E3Xm+99RatLMmOeWELj7bUAr6NOkTuBxYmyxGTbggnhboOpFGtn/WCkeJyVLyTwCphnKHbDjvsUCqN/ypqhGNSlWa5IULj6uhCSm3NNdcs/KJwlgrQo1JoUNHqUyo+qWJOmqLyLL0u17oy1HnMtX7fCdILyIwKBr7j52sSjqT0vPY3Tlg5h3501hgkX5MAHqhPLEZc/R+WL4tNd6/0yBP6B+VndvfRL5OSh0lhXHxPPKu4scPJjh8nvxOIWpFgkEo8w/+YhjfMTGxvTI931OHjpKAMQ2scEzE7gj796U+Xg0w22GCDYiKWHrIwCecK7jlIPHnXCXVlIjP+n3HGGWVPfa9wCwWb5EGQPLKNtfDDOVRnsZ3poMx9joLFVlrN9CITwPa7/t8L4rGORDaUw2LnY6EYF72Jp9j5WhV/3/veNz8kwJj0Xma4DHhjRw0F5oQlymg5QGFzep9RguZJ7QqzX98XalktAH/yGQGxQJf7UXqv4rIgaZSQ9MnWOO18HerC2kJcveKLkmCZIr5h5yvHCdtjWcYEw9r5MtfSaUqehoU0WDQ5IWzQOfNOdr4a1i233PLSf/0VlGmwk046qcSl/oxK/0KBTmkPY+cLY/168S677DLn8JNUStdJDhGXM/RWDj/88GLbmtZ7uSBlmumImnbPHYzCZMvJVeZpKWMn2JkyMFRUUdKbHRamZljQ5EsU495koQLZyt1vp1ZGKL4mku+qTbsM5R9PhvmSBSym8pUG/52Ur2NlbZwIHf1oNwIzBZYjSReCQfgUNPkkrGfDKF/+x7rDrS2QcypmzTz3KtoMl20LJTS2DVtEspMtfFpqUG7o6kRbrXRTvvzJS567v+SSS4qZGKXr7GYbK5wY5vQqStnZuTXITy/gF8G0KUN64+z5ygezLZtK7HTrhTQ8ei8+BZSFupTxMIqYf/muRz+95KHOp/v4TbpLWfkGnZQvHlBetniLcxDa7R844IADyv0o9CcN8unUQJZGGal3i08Yfh7ykIeUxWf/8X2ayneVTHwTSi73M/wPhAs/HDiz8847z3/Xa1ShnxSUG1oJVDfaagXrnkuZB8LKo16+Hg1hfcYznlHO93AegekplU9a/Pbjg/eUuQXdpD9OiN/wPVt1eyHKUo/eFtfwoM7/oKjzLl4VWzydXHiVOibNhHXlZ7lCXpytO4jOkFfTWEcffXQZaY0KaYnLwfQWkffdd9/yqXqO2Wcn553Ok/M/8HsQepsYVzklnitdcMEFPmsxEjErM8ITVxVWz9d1EgpkHEArJee8WD3BXouAWWQTZtNNNy3z173QFDrxswU3fBRPL6EMv1g9qCj8j3PaQR6kcfDBB5cjT3sBTyhCcLiOT+uzlEBT3KAI3XqqRgTi7VeH+FFGjhnNeRjBcp3zFQ9zSwpQufrfi351CM2+pmFDTjozgyDxuppi2mKLLYp1VniA/73SNtJx4H7dUE912sG3jPJghhWRiqpyO1aTedBSBcEzHeCMVwtQvZRv8qXM2XXrGfQCQSnCcqmMSOvUU08tXyRunvHaRMLw6zwIdI1b+YqDVYXPG/U62Uw5pjEQToNAYUcB5N0gCN1OM/PVZA3aINBDNj3C0qLO+1JWvtLgv5PyhTPPPLOcafKb3/ym8LUX8Fh8Gp8TTzxxqMUuNIgfD21pp8Aj55HBXrxzGJRPLqUeo2Oq0w75s5iQcM2s2nV6tpgucE9QMqenwOr3Sw3KkCD6LA66CWg3R4CTL+f46o3V+a/vo1TEqcw8d29aAk8GkR1hVNxJILTaRp0ejbx1anzkO3ngTKFYCIzC8CyIn9xDrCP8F4YiMgKw6ETpd3OUkoVLQ23fWqsVL3oXu/4Ni9DaDc7nzWeyoFd+Ugb4stdee5UGhEySs0yBcpG7/OcSr/lxc739FG9kwVSHqy93LKQejxquicRT7HwXGxJXUArCvZ11Vtg5LVHup+Gkb8VfZQnCo2nwahgQLC1yhLEbat5bQGMGRrFEMcknl3Jy5b9+7iSxGMz3Ar/A4kFlyf9xAX0qFttdJpOhNfQ24X3y6dtjNhbJv6kUSFjgJ/RSBtIRltPzF7ZG/DcdCG/Yu80228w/WxmAV/JlES18g8hKL1CivoaSr+Nw4Y1yxTNxprw0XqyNTFeYt/eeq/lco46PiagFX/8jw8OiX36GRcfzfCcNzAQMNmdjSLqQCfhxI7a8hhjLBREqH2g09Iky6Qa9gSgU+bUYoRcXBUnoI7z5D9LQMPkSgUNVvBNPN0TQHU9qfhnGOe1AltJAiNdZG86Y9UyPqhfkVXiNlnlYR2Oa/6bIIbQlD/xa1UeHQ4Righd57pUXaflsj952TO74d4VhrB2EEcdSmHbwnGzgPUsgUwk1Tf3yopwsmBq5sIBwDomjUBMOb8kbfptqYHljpIbvUbzdgI7Q7oOv5qbJD9nP+6nO+U5D+aYiG3pQvHoRmAkIizBPAwr/rW99azmZCwjHckB46oBth5zbQNFNMPGaf3nDb1CxlMXWW29dzlwlpMl7Kpe4rTD7qomhduJvKt8IVyA+ysU8pXeU4jjnfMXpKl8M+OXDN8XQT5aa9ATeex5+cOyFbQQgB3Zv6dWZ19ZLZp5mbpbcqsDiFodw4umVF+ZQlIcGjn/huPB/uZqagfJHh7ls8mMxrBvPa+B76BcHXlNqpjFSznivg8bUMXEK5xq+dwN/oJxY6uj51lMV3g+jfGGsmywWQ/mGQa4ReKZHholO0w8GKbBxohZ+BWnl29GQbEbB++UEAqVXsMsuu7Q++MEPzufN8yZSDnWZcHp9d73rXcucbnogKqfFPNMxlG4zfBNRTN7xt9VWW5VzfoNx9nyjyBKP3rghsIUw7wA97jvxAcInSDz9ZLF+381vKr93Nna86U1vKlYzoRmS9nJWvqGX7FkEU4dSJt143gm9eC6+lGcvf3nnKoz0bYpiBZQeL8TPNJXvomqXMMaQWO+E4o2AQjeGTgrSqyuuoTFFgU5uOSEV2hDa8C/5ck1rX4P/5DtXeaa8WEsYPh511FGtd73rXeWeXSzFm/KqwzeR4SCnN/O4xz2uPB+mIg4K+YOUGQXBesNUincqXOiJ3yZCK9Rln/v6WRD/UN8H4b9wKrfRlIajTmdULCTsKOiXnvec/LGeca0bmEERftUuiOKFTvyG+Hflh7xtsMEGxa54WFo6oaZnIUg8i6J8a6K17Az2rTKryN0YuRhIAfnqg/kglSSFPE26RkEEDmzdNMSSF66f0ku4XJWL+OaFpC24+d+PLwmTKwP8fKI8CmlSSBo2hzApYvlRK95R0k6YUcLiAdnab7/9ijmb/+PgwULDD4th0jNiOvnkk8vZFaM2tqPyvPYf3hsx1T3ehWBcfE88i6J8KQDMMCyh5A477LCihAkipKIuNlIRnPbFTpGwoMWzadE0KkIzXhvaWhVeZ511yrvweVCED+FBLXT1SKUbaj92Fpm+CCbJ15pOc7cWcDJE9q5+3wuD+hsEaLBLMHVA3J1GIisL5NNxq9YFprFgnXLmbOqxESO8X2qYiPLV21CBI8Qybp6PSY95O0oYQ2JzGn+TBjq0gpwKQEnsv//+5TjN9Ew4ymopFlYvhOb0WtmSsmDIyro898pbyiBX5cKBZ3FNC4LEXfMVpKsHZP642ZOeFJK3NDYWf+x80xurGxQOrU0kj53uOyGNjPjkW7qhgdI/9thjy5SLZ+PkwTjiGAbDpMev/Gr8zLOSg/AEz3OPH93KoL72gng4vK+dqSeLm77erV4n3YVCWuNA4pmI8o1QEvhUYls5VYRU6GlAgUrfVYEoHAsOCsazQQp8uUADaOpB6+8M2UnmLXG7SpfBvamlTDdMC8paz+f9739/UQapgLXSXAii0MUnn4lfvo3wmNahYVyVNlhsng6bXvjCYui4444r5n+UYnjhHsahC+q6Kz6jPQt+TRvspYTwcyLKFyQQofRdOCvwTJUUzDQhfQrCvKi5OEN0AqEQU3mWOwgh3jNvYtrk+MR8xw3GqQzEyeEpJx3Kzuo+jKOCjQr55OxswgOf9kdrZDD8WAiS98iVj5bq8camOXXgigJ5TeNmlMRszxTY7rvvXnhU1/+Fyoa0xJF4N9tss6LsnR8dBT9OjLscJ6JtMITQu1pY22mnncoRhYifhiCmEgbsYJkiWRFH47TomhTk1VkUaUzud7/7FfvX3XbbrUxH1LyA+n/zHXR6VgPvKF1TSuxgbVQQRiVMRZwW8EAZW3w74ogjirH+5ptvXhrdGujtx4dO4I95nnld0yyZ5oC6tzduiBdGldthwg1Lf/Ks8Xc1BWPunzkdsy/1Tvp1Z2eQNOInV7LFusfUljPJmS4yBYNOUxpNDMu7XjSOws+J2PlGMBj66/6zD50GZFIBuWKOnomhOHtLnwDKuysC5N+8OztNm1ooSZsG2HiGP01F6RmXSqJc/Q9MZ9jphqeGlqYb+s2vhQ6fMtIgDMJ/PSjmcw6wUdlGRWiXZ3nHB6MyB8OgI3xAv3vyEp40lZ25RI3MJpts0tpoo40KH7KwyM8g+YL4ddoW2+fmnHo3MOGjzEaVYenaDYmn/Q6hhzRiNtk07XwHhTSZMjoFzg5SJo02ZqA/ThqRn/xP/iJ/3rNoMa2hIWVOhqam/PaCeMB51eS3aT/eCdLV0LJZZ81RQ3zOSWFdEfnph4ltsrBdmFD6iCLCktnFRArRVUWiGFQ0vTTDFAwapsCWK/BeXvEgQuEZA3P76n1GyOfeU06dykq4OCZ5ppFsydWI1e/6IfGzGa7p6QT+KCM9KMouH8ocFcqcLLgqd/HbCadzYAcUW9xUcMg1NLra3OA8Ap/OYWhPCY6qAAPpGKnYRut+UJk0iqmV1aBIvmycGWSDBX4Jo/6wYFjokF65i0Pa4b2pCWnE1cDbOHb4Tq8znUHhyn/KbJDebg35EtaWZeU4KMgheawhLvsXNC6DYiLK16EXDr9w3mvQZOhiIYKipWJt4Uu+GAXeLaTSLCdEqOU3ZZG8+69C5OQtQsQiJf4oP/vv9ewoH4KXuCL8UWae9eIpv0BhxH8/hI6ksxCIq1u6nukF2tKqEjGHJCsqJptR0wn4kPDoqZX5IHnphcSb/PZDlNiw6Tbj7xWe3/gPbcMq+xpoxiu8E1/SFq+zMvCeUvYeX6VlmsIoixWD/Iam8H9UeqIHhO+Xr6TJT8o78Dy0Jq5+ZVL8jEP5hgki1JrqFdkt5rlnuS4GQgeUDLaZoKU68sgjyxAxyLt+TFpZUPMkV7xK2eFDeJJr/DXfNZE4IOF6QRxcXVb90KRrVNTpNekQdzP+VKo8T/g6zzAsXUkvqP8333VC6AiGST9hhWnG00QnP8OkVUM8XOLsFU/9Lul7lvKAWgkOS5M4laFwXD96oPbT9Ju4Boln3t+4lK8I9Zhs7TR8mxYy9NDCKiStpTlepxrJ8EJ7TjPMMMMM48Bo/fUOoHwPPfTQso96mtAQULKGJ4bIvp7A2L7ZU5lhhhlmmCbGpo2YejCst5Ldr9s9SVCyuTJvib3pTPHOMMMMSwkjayS9S7AazWbW97AoXvMwiwmKvnZ6vBZI2LRaFaV0o3ijmGeYYYYZpo0FK98vfelLrX322ed/E8ht5eead4sBc7gUrmuUr11GvkrAdo/i9dx1Nt87wwwzLBWMvOBGwTph3j52iOJdbEThgkU2NpjmeZlDeTdTuDPMMMNSxEg9X0rWZgUH06RnGWSIv1iQdhbZ7O12kr5dUE26ZphhhhmWDlqt/wciLp+AXIqiBAAAAABJRU5ErkJggg==;" parent="1srTuBoPDHxygdRqLbZh-23" vertex="1">
          <mxGeometry x="30" y="40" width="74.16" height="15" as="geometry" />
        </mxCell>
        <mxCell id="1srTuBoPDHxygdRqLbZh-26" value="" style="endArrow=classic;html=1;rounded=0;" parent="1" edge="1">
          <mxGeometry width="50" height="50" relative="1" as="geometry">
            <mxPoint x="200" y="310" as="sourcePoint" />
            <mxPoint x="530" y="350" as="targetPoint" />
            <Array as="points">
              <mxPoint x="200" y="350" />
            </Array>
          </mxGeometry>
        </mxCell>
        <mxCell id="1srTuBoPDHxygdRqLbZh-27" value="Get Integration Script" style="text;html=1;align=center;verticalAlign=middle;whiteSpace=wrap;rounded=0;" parent="1" vertex="1">
          <mxGeometry x="140" y="200" width="160" height="30" as="geometry" />
        </mxCell>
        <mxCell id="1srTuBoPDHxygdRqLbZh-28" value="Address validation logic" style="text;html=1;align=center;verticalAlign=middle;whiteSpace=wrap;rounded=0;" parent="1" vertex="1">
          <mxGeometry x="300" y="323" width="140" height="30" as="geometry" />
        </mxCell>
      </root>
    </mxGraphModel>
  </diagram>
</mxfile>
